<?xml version="1.0" encoding="utf-8"?>
<!-- Generator: Adobe Illustrator 27.0.0, SVG Export Plug-In . SVG Version: 6.00 Build 0)  -->
<svg version="1.1" id="Layer_1" xmlns="http://www.w3.org/2000/svg" xmlns:xlink="http://www.w3.org/1999/xlink" x="0px" y="0px"
	 viewBox="0 0 282 80" style="enable-background:new 0 0 282 80;height:100%; width:100%;" xml:space="preserve">
<style type="text/css">
	.st0{fill-rule:evenodd;clip-rule:evenodd;}
</style>
<g>
	<path class="st0" d="M0.21,0.02c0.31,0.02,0.61-0.02,0.92,0c0.36,1.26,2.43,3.39,3.24,4.49C4.33,22.74,4.28,40.82,4.23,59.04
		c0,5.61,0,11.22,0,16.83C3.1,77.25,1.97,78.63,0.85,80C0.56,79.98,0.28,79.95,0,79.93c0.09-0.09,0.19-0.19,0.28-0.28
		c0.99-1.23,1.97-2.47,2.96-3.7c0.05-17.46,0.09-34.93,0.14-52.39c0-6.4,0-12.65,0-19.05C2.94,3.41,0.12,1.11,0.21,0.02z"/>
	<path class="st0" d="M3.1,0.02c3.81,0.07,7.62-0.07,11.43,0c0.63,1.42,1.27,3.07,1.9,4.49c-1.02-0.02-4.74-0.39-5.29,0
		c-0.02,17.62-0.05,35.38-0.07,53c-0.02,4.45-0.05,8.89-0.07,13.34c0,1.01-0.26,4.39,0.14,4.96c9.99,0,19.98,0,29.97,0
		c-0.59,1.37-1.18,2.75-1.76,4.12C27.22,79.95,15.09,79.98,2.96,80c1.08-1.4,2.16-2.79,3.24-4.19C6.23,58.67,6.25,41.53,6.28,24.4
		C6.3,17.76,6.32,11.14,6.35,4.51C5.71,2.92,3.44,1.84,3.1,0.02z"/>
	<path class="st0" d="M33.99,20.84c-1.22,0-2.45,0-3.67,0c-1.48,0.61-2.96,1.21-4.44,1.82c0.02-2.77,0.05-5.54,0.07-8.31
		c7.57,0.02,15.14,0.05,22.71,0.07c-0.05,2.77-0.09,5.54-0.14,8.31c-1.98-0.89-4.74-2.63-8.04-1.75
		c-0.05,8.52-0.09,17.04-0.14,25.57c0.82,0.4,1.93,1.18,3.17,0.84c0.02-3.45,0.05-6.89,0.07-10.34c-0.61-1.4-1.22-2.79-1.83-4.19
		c0-0.02,0-0.05,0-0.07c6.37,0,12.74,0,19.11,0c0.05,0.02,0.09,0.05,0.14,0.07c-0.02,2.61-0.05,5.22-0.07,7.82
		c-0.02,0-0.05,0-0.07,0c-1.1-0.47-2.21-0.93-3.31-1.4c-2.49,0-4.98,0-7.48,0C50.05,42,50.03,44.73,50,47.45c2.02,0,4.04,0,6.07,0
		c1.29-0.56,2.59-1.12,3.88-1.68c-0.05,3.24-0.09,6.47-0.14,9.71c-1.27-0.54-2.54-1.07-3.81-1.61c-2.02,0.02-4.04,0.05-6.07,0.07
		c-0.05,7.29-0.09,14.58-0.14,21.86c0.56,1.37,1.13,2.75,1.69,4.12c-3.31,0-6.63,0-9.94,0c0.61-1.37,1.22-2.75,1.83-4.12
		c0.02-7.31,0.05-14.62,0.07-21.93c-1.06,0.02-2.12,0.05-3.17,0.07c0,1.23,0,2.47,0,3.7c0.61,1.44,1.22,2.89,1.83,4.33
		c-0.02,0-0.05,0-0.07,0c-3.36-0.05-6.72-0.09-10.09-0.14c0.95-1.95,2.75-4.66,1.83-8.03c-5.78-0.02-11.57-0.05-17.35-0.07
		c0.61-1.4,1.22-2.79,1.83-4.19c0-4.28,0-8.57,0-12.85c0.02-10.76,0.05-21.43,0.07-32.18c-0.59-1.37-1.18-3.11-1.76-4.49
		c0-0.02,0,0.02,0,0c3.38,0.02,6.77-0.02,10.16,0c-0.59,1.4-1.18,3.09-1.76,4.49c-0.05,9.2-0.09,18.38-0.14,27.57
		c-0.02,5.08-0.05,10.15-0.07,15.23c0.02,0.05,0.05,0.09,0.07,0.14c2.37,0,4.75,0,7.12,0c0.63-0.26,1.27-0.51,1.9-0.77
		C33.9,38.07,33.95,29.45,33.99,20.84z"/>
	<path class="st0" d="M66.58,4.51c-13.23-0.05-26.47,0.05-39.71,0c0.61-1.4,1.22-3.09,1.83-4.49c15.33,0.07,30.66-0.07,45.98,0
		c-0.07,0.07-0.14-0.07-0.21,0c-1.01,1.28-2.02,3.21-3.03,4.49C71.4,11,71.35,17.55,71.3,24.05c-0.14,17.23-0.28,34.46-0.42,51.69
		c1.03,1.4,2.07,2.79,3.1,4.19c-6.75,0-13.49,0-20.24,0c-0.59-1.4-1.18-2.79-1.76-4.19c0.02-0.02,0.05-0.05,0.07-0.07
		c4.68,0,9.36,0,14.03,0C66.25,51.99,66.41,28.19,66.58,4.51z"/>
	<path class="st0" d="M76.52,0.02c0.33,0,0.66,0,0.99,0c-1.1,1.4-2.21,3.09-3.31,4.49c-0.02,5.31-0.05,10.74-0.07,16.05
		c-0.12,12.73-0.24,25.47-0.35,38.21c-0.05,5.7-0.09,11.41-0.14,17.11c1.06,1.33,2.12,2.65,3.17,3.98c0,0.02,0,0.05,0,0.07
		c-0.31,0-0.61,0-0.92,0c-1.08-1.4-2.16-2.79-3.24-4.19c0.16-17.46,0.33-34.93,0.49-52.39c0.02-6.26,0.05-12.58,0.07-18.84
		C74.31,3.13,75.42,1.39,76.52,0.02z"/>
</g>
<g id="mntkGs_00000139989327850333947370000007437822044447576713_">
	<g>
		<path d="M276.74,48.33c-2.16,0-4.27,0-6.45,0c0.21-0.39,0.41-0.73,0.57-1.09c0.08-0.18,0.14-0.41,0.09-0.58
			c-0.77-2.92-1.56-5.84-2.34-8.76c-0.01-0.02-0.04-0.04-0.11-0.12c-0.15,0.53-0.29,1.01-0.42,1.5c-0.65,2.38-1.3,4.77-1.96,7.15
			c-0.1,0.35-0.12,0.65,0.12,0.96c0.2,0.27,0.34,0.59,0.54,0.93c-2.17,0-4.29,0-6.45,0c0.19-0.68,0.33-1.37,0.56-2.03
			c0.21-0.6,0.14-1.17,0.05-1.76c-0.23-1.6-0.46-3.19-0.7-4.79c-0.23-1.57-0.46-3.13-0.69-4.7c-0.22-1.54-0.44-3.07-0.66-4.61
			c-0.23-1.6-0.47-3.19-0.7-4.79c-0.22-1.55-0.44-3.11-0.66-4.66c-0.22-1.57-0.46-3.13-0.68-4.7c-0.06-0.38-0.12-0.77-0.15-1.16
			c-0.05-0.68-0.34-1.25-0.68-1.82c-0.35-0.57-0.66-1.17-1.01-1.8c2.16,0,4.28,0,6.44,0c-0.15,0.56-0.25,1.13-0.45,1.66
			c-0.31,0.8-0.24,1.6-0.12,2.41c0.28,1.85,0.53,3.69,0.8,5.54c0.32,2.2,0.65,4.4,0.97,6.6c0.29,2,0.55,3.99,0.84,5.99
			c0.21,1.48,0.44,2.95,0.73,4.46c1.42-5.25,2.84-10.49,4.27-15.74c0.03,0,0.06,0,0.09,0c1.4,5.24,2.81,10.48,4.21,15.72
			c0.02,0,0.05,0,0.07,0.01c0.09-0.55,0.18-1.1,0.26-1.65c0.26-1.8,0.53-3.6,0.79-5.41c0.25-1.74,0.5-3.49,0.75-5.23
			c0.22-1.55,0.46-3.1,0.68-4.65c0.19-1.33,0.39-2.66,0.58-3.99c0.13-0.9,0.27-1.8,0.36-2.71c0.03-0.31-0.05-0.64-0.13-0.95
			c-0.17-0.69-0.37-1.37-0.57-2.07c2.15,0,4.24,0,6.41,0c-0.37,0.65-0.67,1.29-1.06,1.86c-0.47,0.7-0.6,1.48-0.71,2.28
			c-0.25,1.82-0.53,3.63-0.79,5.45c-0.25,1.77-0.49,3.55-0.75,5.32c-0.26,1.77-0.53,3.54-0.78,5.32c-0.26,1.77-0.49,3.55-0.75,5.32
			c-0.26,1.77-0.53,3.54-0.79,5.31c-0.15,1.02-0.31,2.04-0.42,3.06c-0.03,0.25,0.09,0.52,0.16,0.78
			C276.32,46.91,276.53,47.61,276.74,48.33z"/>
		<path d="M239.52,11.51c4.43,0,8.81,0,13.22,0c0,1.76,0,3.5,0,5.31c-0.77-0.32-1.53-0.66-2.3-0.95c-0.34-0.13-0.72-0.21-1.08-0.21
			c-1.48-0.02-2.97-0.01-4.49-0.01c0,2.01,0,4,0,6.04c0.72,0,1.44-0.05,2.15,0.01c1.46,0.13,2.81-0.18,4.1-0.85
			c0.25-0.13,0.52-0.22,0.81-0.35c0,2.18,0,4.32,0,6.51c-0.83-0.35-1.65-0.7-2.47-1.02c-0.22-0.09-0.46-0.14-0.69-0.15
			c-1.29-0.01-2.58-0.01-3.9-0.01c0,6.13,0,12.23,0,18.38c0.31,0,0.62,0,0.93,0c0.33,0,0.66-0.02,0.99,0
			c1.98,0.15,3.9-0.05,5.68-1.03c0.07-0.04,0.16-0.05,0.3-0.1c-0.19,0.91-0.38,1.78-0.57,2.65c-0.17,0.77-0.34,1.54-0.54,2.31
			c-0.03,0.12-0.21,0.3-0.32,0.3c-3.92,0.01-7.83,0-11.75,0c-0.01,0-0.02-0.01-0.07-0.04c0.34-0.82,0.69-1.64,1.02-2.46
			c0.09-0.22,0.14-0.46,0.14-0.69c0.01-10.15,0.01-20.3,0-30.45c0-0.23-0.06-0.47-0.14-0.69C240.22,13.18,239.87,12.36,239.52,11.51
			z"/>
		<path d="M229.38,21.67c1.39,0,2.76,0.03,4.12-0.02c0.35-0.01,0.7-0.23,1.04-0.37c0.62-0.25,1.23-0.52,1.89-0.8
			c0,2.18,0,4.31,0,6.51c-0.77-0.32-1.53-0.66-2.3-0.95c-0.34-0.13-0.72-0.21-1.08-0.21c-1.21-0.03-2.43-0.01-3.71-0.01
			c0,0.18,0,0.34,0,0.49c0,6.31,0,12.61,0.01,18.92c0,0.23,0.06,0.47,0.14,0.69c0.31,0.79,0.65,1.57,0.99,2.39
			c-2.17,0-4.29,0-6.45,0c0.34-0.82,0.68-1.63,1-2.44c0.1-0.26,0.17-0.54,0.17-0.82c0.01-10.11,0.01-20.21,0-30.32
			c0-0.26-0.07-0.53-0.16-0.77c-0.32-0.82-0.66-1.62-1.01-2.46c4.42,0,8.8,0,13.21,0c0,1.75,0,3.5,0,5.3
			c-0.75-0.31-1.5-0.64-2.26-0.92c-0.37-0.13-0.77-0.23-1.16-0.24c-1.47-0.03-2.94-0.01-4.44-0.01
			C229.38,17.65,229.38,19.63,229.38,21.67z"/>
		<path d="M119.73,11.5c2.2,0,4.31,0,6.46,0c-0.12,0.87-0.24,1.72-0.35,2.57c-0.02,0.13-0.02,0.27,0.01,0.39
			c0.67,2.52,1.34,5.04,2.01,7.56c0.01,0.02,0.04,0.03,0.11,0.08c0.23-0.84,0.46-1.66,0.68-2.49c0.45-1.65,0.92-3.3,1.31-4.97
			c0.12-0.5-0.01-1.06-0.06-1.58c-0.05-0.5-0.15-1-0.23-1.53c2.14,0,4.26,0,6.45,0c-0.14,0.21-0.26,0.42-0.4,0.6
			c-1.11,1.35-1.75,2.89-2.19,4.59c-1.09,4.3-2.29,8.58-3.44,12.86c-0.06,0.21-0.09,0.44-0.09,0.66c0,5-0.01,10,0,15
			c0,0.23,0.05,0.48,0.14,0.69c0.31,0.79,0.65,1.57,1,2.39c-2.17,0-4.28,0-6.45,0c0.34-0.83,0.7-1.65,1.02-2.47
			c0.09-0.23,0.15-0.49,0.15-0.73c0.01-4.31-0.02-8.62,0.02-12.93c0.01-1.45-0.16-2.84-0.55-4.24c-1.23-4.44-2.4-8.89-3.61-13.33
			c-0.09-0.33-0.3-0.64-0.5-0.94C120.76,12.96,120.26,12.27,119.73,11.5z"/>
		<path d="M190.9,15.74c0,0.17,0,0.37,0,0.58c0,9.55,0,19.1,0.01,28.65c0,0.35,0.08,0.71,0.21,1.04c0.29,0.77,0.63,1.51,0.96,2.31
			c-2.16,0-4.27,0-6.45,0c0.33-0.79,0.66-1.57,0.97-2.36c0.09-0.24,0.16-0.52,0.16-0.77c0.01-9.69,0.01-19.37,0.01-29.06
			c0-0.15,0-0.29,0-0.4c-2-0.43-3.75,0.21-5.48,1.14c0-1.84,0-3.59,0-5.36c5.06,0,10.1,0,15.17,0c0,1.73,0,3.47,0,5.3
			C194.71,15.95,192.94,15.3,190.9,15.74z"/>
		<path d="M94.16,44.21c1.7,0,3.33,0,4.97-0.01c0.14,0,0.29-0.07,0.42-0.12c0.83-0.34,1.65-0.69,2.56-1.07
			c-0.14,0.65-0.26,1.24-0.38,1.82c-0.24,1.08-0.47,2.15-0.73,3.23c-0.03,0.12-0.22,0.29-0.33,0.29c-3.9,0.01-7.8,0.01-11.7,0.01
			c-0.02,0-0.05-0.02-0.1-0.05c0.34-0.81,0.68-1.62,1-2.43c0.09-0.23,0.16-0.49,0.16-0.73c0.01-10.15,0.01-20.3,0-30.45
			c0-0.23-0.06-0.47-0.15-0.69c-0.32-0.82-0.67-1.62-1.02-2.47c2.15,0,4.27,0,6.45,0c-0.31,0.74-0.63,1.45-0.91,2.19
			c-0.13,0.34-0.22,0.72-0.22,1.08c-0.01,9.61-0.01,19.22-0.01,28.83C94.16,43.79,94.16,43.97,94.16,44.21z"/>
		<path d="M156.74,48.35c0.37-0.89,0.73-1.71,1.06-2.54c0.08-0.2,0.13-0.43,0.13-0.65c0.01-10.16,0.01-20.33,0-30.49
			c0-0.22-0.05-0.44-0.14-0.65c-0.33-0.83-0.68-1.65-1.04-2.51c2.17,0,4.28,0,6.46,0c-0.35,0.83-0.69,1.62-1.01,2.42
			c-0.08,0.19-0.13,0.4-0.13,0.6c-0.01,9.77-0.01,19.55-0.01,29.32c0,0.09,0,0.18,0,0.34c0.17,0,0.33,0,0.49,0
			c1.38,0,2.76,0.01,4.14-0.01c0.29,0,0.59-0.07,0.86-0.17c0.8-0.31,1.6-0.66,2.46-1.02c-0.17,0.81-0.32,1.57-0.49,2.32
			c-0.2,0.9-0.4,1.8-0.62,2.7c-0.03,0.13-0.2,0.31-0.31,0.31C164.67,48.35,160.74,48.35,156.74,48.35z"/>
		<path d="M150.72,53.22c0.93,0,1.72,0.01,2.52-0.01c0.26-0.01,0.32,0.13,0.37,0.34c0.32,1.21,0.66,2.41,0.99,3.62
			c0.03,0.12,0.08,0.25,0.14,0.42c0.38-1.38,0.76-2.69,1.11-4.02c0.07-0.26,0.15-0.38,0.44-0.37c0.77,0.02,1.55,0.01,2.42,0.01
			c-0.73,1.06-0.5,2.19-0.51,3.28c-0.02,3.08-0.01,6.16,0,9.23c0,0.94-0.13,1.89,0.5,2.78c-0.95,0-1.83,0-2.77,0
			c0.72-1.07,0.46-2.25,0.48-3.38c0.03-2.15,0.01-4.29,0.01-6.44c0-0.16,0-0.33,0-0.49c-0.03,0-0.05-0.01-0.08-0.01
			c-0.52,1.93-1.04,3.86-1.56,5.79c-0.03,0-0.05,0-0.08,0c-0.52-1.92-1.04-3.84-1.55-5.76c-0.02,0-0.04,0-0.06,0
			c-0.01,0.1-0.03,0.21-0.03,0.31c0,2.85-0.01,5.71,0,8.56c0,0.23,0.07,0.47,0.15,0.69c0.08,0.25,0.19,0.49,0.3,0.76
			c-0.91,0-1.78,0-2.73,0c0.76-1.17,0.48-2.44,0.49-3.66c0.03-2.99,0.01-5.98,0.01-8.96C151.27,55,151.39,54.09,150.72,53.22z"/>
		<path d="M209.09,68.52c-0.97,0-1.82,0-2.76,0c0.45-0.52,0.19-1,0.06-1.49c-0.25-0.92-0.49-1.84-0.77-2.88
			c-0.27,0.98-0.52,1.85-0.76,2.72c-0.04,0.14-0.06,0.29-0.11,0.43c-0.14,0.4-0.3,0.8,0.21,1.2c-0.99,0-1.85,0-2.74,0
			c0-0.04-0.01-0.1,0.01-0.14c0.44-1.02,0.09-2.02-0.04-3.03c-0.17-1.36-0.39-2.72-0.59-4.08c-0.22-1.55-0.44-3.1-0.67-4.65
			c-0.06-0.41-0.08-0.84-0.18-1.24c-0.18-0.71-0.42-1.41-0.63-2.11c0.77,0,1.64,0,2.57,0c-0.61,1.22-0.11,2.42,0.02,3.61
			c0.15,1.36,0.39,2.72,0.59,4.08c0.16,1.08,0.31,2.16,0.52,3.24c0.58-2.12,1.15-4.25,1.73-6.37c0.03,0,0.06,0,0.08,0
			c0.57,2.1,1.13,4.21,1.7,6.31c0.03-0.01,0.06-0.01,0.09-0.02c0.4-2.8,0.78-5.61,1.21-8.41c0.13-0.82,0.24-1.62-0.15-2.44
			c0.92,0,1.78,0,2.64,0c0,0.03,0.02,0.07,0.01,0.09c-0.72,0.96-0.73,2.12-0.9,3.24c-0.25,1.59-0.47,3.19-0.7,4.79
			c-0.22,1.54-0.43,3.08-0.66,4.61C208.78,66.81,208.6,67.64,209.09,68.52z"/>
		<path d="M175.08,68.51c0.67-0.94,0.51-1.96,0.51-2.95c0.01-3.09,0.01-6.19,0-9.28c0-1.02,0.17-2.07-0.5-3.04c0.95,0,1.81,0,2.68,0
			c0.01,0.02,0.03,0.05,0.03,0.07c-0.49,0.83-0.43,1.75-0.42,2.66c0.01,0.77,0,1.55,0.1,2.35c0.26-0.58,0.51-1.15,0.77-1.73
			c0.16-0.35,0.35-0.7,0.47-1.06c0.26-0.74,0.48-1.48,0.73-2.29c0.72,0,1.58,0,2.49,0c-0.08,0.11-0.13,0.21-0.21,0.28
			c-0.51,0.52-0.89,1.11-1.17,1.78c-0.48,1.14-1.01,2.26-1.49,3.4c-0.08,0.18-0.09,0.43-0.04,0.63c0.68,2.59,1.36,5.19,2.1,7.76
			c0.14,0.5,0.52,0.93,0.8,1.41c-0.87,0-1.73,0-2.59,0c0.3-1.97-0.72-3.67-1.07-5.5c-0.09-0.49-0.27-0.97-0.41-1.49
			c-0.76,1.13-0.44,2.35-0.45,3.5c-0.02,1.16-0.26,2.38,0.47,3.49C176.92,68.51,176.06,68.51,175.08,68.51z"/>
		<path d="M146.59,54.93c0,0.87,0,1.67,0,2.49c1.01,0.11,1.98,0.08,2.92-0.51c0,0.96,0,1.82,0,2.78c-0.91-0.56-1.88-0.6-2.91-0.49
			c0,2.53,0,5.05,0,7.61c1.09,0.03,2.18,0.17,3.28-0.55c-0.19,0.85-0.35,1.56-0.5,2.27c-1.69,0-3.34,0-4.99,0
			c-0.01-0.03-0.04-0.06-0.03-0.08c0.46-0.79,0.44-1.65,0.44-2.52c-0.01-3.21,0-6.43-0.01-9.64c0-1.02,0.18-2.07-0.51-3.04
			c1.9,0,3.7,0,5.54,0c0,0.71,0,1.41,0,2.11c-0.53-0.14-1.04-0.33-1.57-0.4C147.72,54.88,147.17,54.93,146.59,54.93z"/>
		<path d="M184.76,54.95c0,0.85,0,1.64,0,2.46c1.01,0.14,1.98,0.07,2.94-0.49c0,0.96,0,1.82,0,2.78c-0.93-0.56-1.9-0.62-2.92-0.49
			c0,2.51,0,5.03,0,7.62c0.53,0,1.09,0.05,1.63-0.01c0.52-0.06,1.03-0.25,1.61-0.4c-0.1,0.48-0.19,0.98-0.3,1.47
			c-0.15,0.65-0.15,0.65-0.83,0.65c-1.44,0-2.88,0-4.32,0c-0.01-0.05-0.03-0.08-0.02-0.1c0.44-0.74,0.44-1.56,0.43-2.39
			c-0.02-3.26,0-6.52-0.01-9.78c0-1.02,0.17-2.07-0.5-3.03c1.9,0,3.71,0,5.54,0c0,0.72,0,1.42,0,2.22
			C186.99,54.78,185.89,54.93,184.76,54.95z"/>
		<path d="M263.7,53.24c1.92,0,3.71,0,5.54,0c0,0.71,0,1.41,0,2.22c-1.01-0.67-2.11-0.52-3.22-0.51c0,0.83,0,1.65,0,2.48
			c1,0.09,1.97,0.08,2.91-0.52c0,0.96,0,1.82,0,2.78c-0.91-0.56-1.88-0.59-2.9-0.49c0,2.52,0,5.05,0,7.61
			c1.08,0.01,2.18,0.18,3.27-0.56c-0.19,0.86-0.34,1.56-0.5,2.27c-1.69,0-3.34,0-5,0c0-0.04-0.02-0.09-0.01-0.12
			c0.42-0.73,0.43-1.53,0.42-2.35c-0.02-3.26,0-6.52-0.01-9.78C264.21,55.26,264.38,54.21,263.7,53.24z"/>
		<path d="M242.72,59.63c-0.48-0.16-0.93-0.37-1.4-0.44c-0.48-0.08-0.98-0.02-1.52-0.02c-0.01,0.19-0.02,0.35-0.02,0.5
			c0,2.45-0.02,4.89,0.02,7.34c0.01,0.5,0.24,1,0.36,1.51c-0.84,0-1.7,0-2.57,0c-0.01-0.03-0.03-0.07-0.02-0.09
			c0.43-0.74,0.44-1.56,0.43-2.39c-0.02-3.26-0.01-6.51-0.01-9.77c0-0.53,0.05-1.06-0.01-1.57c-0.06-0.49-0.25-0.97-0.38-1.46
			c1.79,0,3.59,0,5.43,0c0,0.71,0,1.41,0,2.11c-0.53-0.14-1.04-0.33-1.57-0.4c-0.53-0.07-1.07-0.02-1.65-0.02c0,0.85,0,1.66,0,2.5
			c1,0.06,1.98,0.13,2.91-0.56C242.72,57.87,242.72,58.73,242.72,59.63z"/>
		<path d="M257.19,53.23c1.92,0,3.72,0,5.56,0c0,0.72,0,1.42,0,2.24c-1.01-0.71-2.1-0.53-3.21-0.53c0,0.83,0,1.64,0,2.52
			c0.5,0,1.01,0.06,1.5-0.02c0.47-0.07,0.92-0.29,1.41-0.45c0,0.89,0,1.74,0,2.7c-0.93-0.53-1.9-0.6-2.96-0.47c0,0.16,0,0.32,0,0.48
			c0,2.13,0.01,4.26-0.01,6.4c-0.01,0.83-0.02,1.65,0.51,2.42c-0.96,0-1.83,0-2.78,0c0.73-1.06,0.49-2.22,0.49-3.34
			c0.02-3.05,0.01-6.1,0.01-9.14C257.73,55.09,257.86,54.13,257.19,53.23z"/>
		<path d="M226.11,53.25c-1.23,1.42-1.24,3.2-1.79,4.79c-0.14,0.39-0.21,0.81-0.34,1.2c-0.34,1.06-0.49,2.14-0.45,3.27
			c0.05,1.35,0.02,2.7,0.01,4.05c-0.01,0.54,0.04,1.04,0.31,1.52c0.07,0.13,0.1,0.28,0.15,0.44c-0.9,0-1.76,0-2.62,0
			c-0.01-0.05-0.02-0.08-0.01-0.1c0.48-0.8,0.44-1.68,0.43-2.57c-0.02-1.17-0.03-2.34,0.01-3.51c0.03-1.01-0.12-1.99-0.4-2.96
			c-0.38-1.3-0.67-2.63-1.07-3.92c-0.23-0.76-0.6-1.47-0.9-2.19c0.76,0,1.63,0,2.55,0c-0.46,1.51,0.45,2.8,0.68,4.22
			c0.31-1.39,1.12-2.68,0.73-4.22C224.29,53.25,225.15,53.25,226.11,53.25z"/>
		<path d="M114.37,53.24c2.12,0,4.21,0,6.32,0c0,0.71,0,1.41,0,2.17c-0.75-0.23-1.44-0.67-2.28-0.41c-0.01,0.12-0.02,0.27-0.02,0.42
			c0,3.87-0.01,7.75,0.02,11.62c0,0.48,0.24,0.97,0.37,1.47c-0.83,0-1.71,0-2.65,0c0.75-1.15,0.46-2.42,0.47-3.65
			c0.03-3.11,0.01-6.22,0.01-9.33c0-0.18,0-0.36,0-0.52c-0.82-0.28-1.5,0.12-2.24,0.41C114.37,54.66,114.37,53.97,114.37,53.24z"/>
		<path d="M250.05,66.82c1.14-0.01,2.23,0.18,3.2-0.51c0.03,0.03,0.05,0.06,0.08,0.09c-0.15,0.67-0.3,1.35-0.47,2.02
			c-0.01,0.05-0.13,0.11-0.2,0.11c-1.6,0.01-3.2,0-4.9,0c0.76-1.13,0.5-2.34,0.51-3.5c0.03-2.99,0.01-5.98,0.01-8.97
			c0-0.95,0.14-1.92-0.51-2.82c0.95,0,1.81,0,2.7,0c-0.01,0.04,0,0.1-0.02,0.14c-0.42,0.74-0.4,1.54-0.39,2.35
			c0.01,3.5,0.01,7,0.01,10.5C250.05,66.42,250.05,66.59,250.05,66.82z"/>
		<path d="M253.6,53.23c0.98,0,1.83,0,2.71,0c-0.01,0.06,0,0.12-0.03,0.16c-0.4,0.71-0.4,1.48-0.4,2.26c0.01,3.29,0,6.58,0.01,9.86
			c0,1.01-0.17,2.05,0.51,3c-0.96,0-1.82,0-2.69,0c0-0.03-0.02-0.08-0.01-0.11c0.42-0.73,0.43-1.53,0.42-2.35
			c-0.02-3.3-0.01-6.61-0.01-9.91C254.12,55.17,254.27,54.17,253.6,53.23z"/>
		<g>
			<g>
				<path d="M118.3,14.01c-0.3-0.75-0.6-1.49-0.94-2.23c-0.06-0.13-0.27-0.28-0.41-0.28c-3.72-0.02-7.44-0.02-11.16,0
					c-0.14,0-0.35,0.15-0.41,0.29c-0.28,0.59-0.54,1.2-0.75,1.82c-0.14,0.41-0.26,0.86-0.26,1.29c-0.02,5-0.01,10-0.01,15
					c0,5.11,0,10.21,0,15.32c0,0.22,0.03,0.45,0.11,0.65c0.28,0.72,0.6,1.43,0.89,2.15c0.1,0.24,0.22,0.34,0.49,0.34
					c3.69-0.01,7.38-0.01,11.07,0c0.28,0,0.39-0.11,0.49-0.34c0.29-0.72,0.6-1.43,0.89-2.15c0.07-0.19,0.11-0.4,0.11-0.61
					c0.01-10.23,0-20.45,0-30.68C118.4,14.39,118.37,14.19,118.3,14.01z M114.22,44.19c-1.91,0-3.8,0-5.71,0c0-9.51,0-19.01,0-28.53
					c1.91,0,3.79,0,5.71,0C114.22,25.16,114.22,34.65,114.22,44.19z"/>
			</g>
		</g>
		<g>
			<g>
				<path d="M212.78,14.56c0-0.19-0.03-0.39-0.1-0.56c-0.29-0.73-0.61-1.46-0.91-2.19c-0.09-0.21-0.19-0.32-0.46-0.32
					c-3.71,0.01-7.41,0.01-11.12,0c-0.26,0-0.37,0.1-0.46,0.32c-0.25,0.62-0.54,1.23-0.76,1.86c-0.13,0.37-0.24,0.77-0.24,1.16
					c-0.02,5.02-0.01,10.03-0.01,15.05c0,5.12,0,10.24,0,15.36c0,0.2,0.02,0.42,0.1,0.61c0.29,0.74,0.61,1.46,0.9,2.19
					c0.09,0.22,0.19,0.32,0.46,0.32c3.71-0.01,7.41-0.01,11.12,0c0.26,0,0.37-0.11,0.46-0.32c0.3-0.75,0.62-1.49,0.92-2.24
					c0.06-0.16,0.09-0.35,0.09-0.52C212.79,35.04,212.79,24.8,212.78,14.56z M208.62,44.17c-1.9,0-3.79,0-5.72,0
					c0-9.49,0-18.98,0-28.51c1.93,0,3.81,0,5.72,0C208.62,25.17,208.62,34.66,208.62,44.17z"/>
			</g>
		</g>
		<g>
			<g>
				<path d="M148.97,48.33c2.18,0,4.28,0,6.45,0c-0.5-0.85-0.98-1.65-1.46-2.46c-0.1-0.17-0.21-0.34-0.24-0.53
					c-0.38-2.1-0.74-4.2-1.1-6.3c-0.49-2.84-0.97-5.67-1.46-8.51c-0.47-2.67-0.95-5.34-1.42-8.01c-0.51-2.89-1-5.79-1.52-8.68
					c-0.1-0.54-0.1-1.02,0.25-1.47c0.19-0.25,0.32-0.55,0.49-0.85c-2.16,0-4.24,0-6.39,0c0.25,0.43,0.49,0.8,0.68,1.2
					c0.1,0.21,0.15,0.48,0.12,0.71c-0.23,1.44-0.49,2.88-0.74,4.32c-0.37,2.16-0.74,4.32-1.12,6.48c-0.38,2.17-0.76,4.35-1.14,6.52
					c-0.37,2.13-0.74,4.26-1.11,6.39c-0.38,2.17-0.78,4.34-1.13,6.52c-0.19,1.16-0.41,2.28-1.14,3.25
					c-0.32,0.43-0.56,0.93-0.86,1.43c2.18,0,4.3,0,6.46,0c-0.1-0.42-0.21-0.82-0.29-1.22c-0.12-0.59-0.37-1.21-0.29-1.78
					c0.3-2.2,0.7-4.39,1.08-6.58c0.27-1.57,0.55-3.13,0.83-4.71c1.25,0,2.48,0,3.73,0c0.16,0.89,0.32,1.76,0.48,2.64
					c0.43,2.48,0.83,4.97,1.31,7.44c0.18,0.93,0.22,1.81-0.08,2.72C149.19,47.32,149.09,47.82,148.97,48.33z M144.64,29.86
					c0.36-2.09,0.72-4.16,1.08-6.23c0.04,0,0.07,0,0.11,0c0.36,2.07,0.72,4.13,1.08,6.23C146.15,29.86,145.43,29.86,144.64,29.86z"
					/>
			</g>
		</g>
		<g>
			<g>
				<path d="M126.45,61.89c-0.14-0.88-0.28-1.77-0.42-2.72c0.44,0,0.81,0.02,1.18-0.01c0.14-0.01,0.32-0.13,0.39-0.25
					c0.3-0.53,0.45-1.09,0.41-1.72c-0.04-0.64-0.04-1.29,0-1.94c0.03-0.6-0.11-1.15-0.34-1.69c-0.11-0.26-0.25-0.35-0.53-0.35
					c-1.73,0.01-3.45,0.01-5.18,0.01c-0.1,0-0.19,0.01-0.38,0.02c0.65,0.9,0.52,1.88,0.52,2.83c0,3,0.02,6.01-0.01,9.01
					c-0.01,1.15,0.24,2.34-0.49,3.43c0.95,0,1.82,0,2.65,0c-0.13-0.52-0.35-1.02-0.36-1.52c-0.04-2.45-0.02-4.89-0.02-7.34
					c0-0.15,0-0.29,0-0.43c0.35-0.12,0.44,0.03,0.47,0.3c0.13,0.89,0.27,1.77,0.41,2.65c0.25,1.61,0.53,3.21,0.74,4.82
					c0.06,0.49-0.09,1.01-0.14,1.5c0.85,0,1.71,0,2.51,0c-0.22-0.59-0.51-1.15-0.62-1.75C126.93,65.14,126.71,63.51,126.45,61.89z
					 M123.91,57.44c0-0.82,0-1.63,0-2.48c0.76,0,1.52,0,2.3,0c0,0.82,0,1.62,0,2.48C125.44,57.44,124.69,57.44,123.91,57.44z"/>
			</g>
		</g>
		<g>
			<g>
				<path d="M173.43,66.82c-0.34-2.05-0.65-4.09-0.97-6.14c-0.08-0.49-0.14-0.98-0.21-1.51c0.44,0,0.82,0.02,1.19-0.01
					c0.13-0.01,0.3-0.12,0.36-0.23c0.28-0.53,0.46-1.09,0.42-1.71c-0.04-0.64-0.04-1.29,0-1.94c0.04-0.62-0.11-1.18-0.35-1.74
					c-0.1-0.24-0.23-0.34-0.5-0.33c-0.82,0.02-1.65,0.01-2.48,0.01c-1,0-2,0-3.1,0c0.68,0.98,0.51,2.03,0.52,3.05
					c0.01,3.17,0,6.34,0,9.5c0,0.92,0.13,1.86-0.51,2.72c0.97,0,1.84,0,2.66,0c-0.13-0.51-0.35-1-0.35-1.49
					c-0.04-2.46-0.02-4.92-0.02-7.39c0-0.15,0-0.29,0-0.42c0.38-0.1,0.44,0.07,0.48,0.34c0.16,1.08,0.34,2.15,0.51,3.23
					c0.22,1.4,0.47,2.8,0.64,4.2c0.06,0.5-0.09,1.02-0.14,1.54c0.83,0,1.7,0,2.62,0c-0.16-0.29-0.32-0.52-0.43-0.77
					C173.61,67.44,173.48,67.14,173.43,66.82z M170.1,57.43c0-0.83,0-1.63,0-2.47c0.77,0,1.52,0,2.31,0c0,0.82,0,1.63,0,2.47
					C171.63,57.43,170.88,57.43,170.1,57.43z"/>
			</g>
		</g>
		<g>
			<g>
				<path d="M194.83,53.35c-0.02-0.07-0.19-0.13-0.3-0.13c-1.86-0.01-3.72-0.01-5.62-0.01c0.06,0.16,0.09,0.29,0.15,0.4
					c0.26,0.49,0.31,1.01,0.31,1.56c-0.01,3.56-0.01,7.12-0.01,10.68c0,0.89,0.12,1.81-0.55,2.68c1.99,0,3.85,0,5.71-0.01
					c0.1,0,0.27-0.06,0.3-0.13c0.17-0.47,0.42-0.96,0.43-1.44c0.03-4.05,0.03-8.11,0-12.16C195.25,54.31,195,53.83,194.83,53.35z
					 M193.49,66.8c-0.78,0-1.53,0-2.32,0c0-3.95,0-7.87,0-11.84c0.76,0,1.51,0,2.32,0C193.49,58.92,193.49,62.85,193.49,66.8z"/>
			</g>
		</g>
		<g>
			<g>
				<path d="M143.16,53.56c-0.12-0.26-0.25-0.35-0.53-0.35c-1.7,0.01-3.39,0.01-5.09,0.01c-0.13,0-0.25,0.01-0.47,0.02
					c0.65,0.89,0.51,1.85,0.52,2.78c0,2.96,0.02,5.92-0.01,8.88c-0.01,1.21,0.27,2.46-0.5,3.63c1.97,0,3.84,0,5.71-0.01
					c0.09,0,0.24-0.06,0.26-0.12c0.16-0.49,0.42-0.99,0.43-1.48c0.04-3.89,0.01-7.78,0.03-11.67
					C143.5,54.65,143.4,54.1,143.16,53.56z M141.69,66.81c-0.77,0-1.51,0-2.29,0c0-3.94,0-7.88,0-11.84c0.75,0,1.5,0,2.29,0
					C141.69,58.89,141.69,62.83,141.69,66.81z"/>
			</g>
		</g>
		<g>
			<g>
				<path d="M236.21,53.35c-0.02-0.07-0.19-0.13-0.29-0.13c-1.47-0.01-2.94-0.01-4.41,0c-0.1,0-0.27,0.05-0.3,0.12
					c-0.16,0.43-0.4,0.87-0.4,1.3c-0.04,2.07-0.02,4.14-0.02,6.22c0,2.09-0.02,4.17,0.02,6.26c0.01,0.44,0.25,0.87,0.41,1.3
					c0.03,0.07,0.2,0.11,0.3,0.11c1.46,0.01,2.91,0.01,4.37,0c0.1,0,0.28-0.04,0.3-0.1c0.17-0.46,0.43-0.92,0.43-1.39
					c0.03-4.1,0.03-8.2,0-12.3C236.62,54.28,236.37,53.81,236.21,53.35z M234.9,66.81c-0.79,0-1.56,0-2.36,0c0-3.94,0-7.88,0-11.85
					c0.77,0,1.54,0,2.36,0C234.9,58.89,234.9,62.83,234.9,66.81z"/>
			</g>
		</g>
		<g>
			<g>
				<path d="M133.83,68.51c0.89,0,1.75,0,2.67,0c-0.19-0.32-0.35-0.6-0.51-0.88c-0.07-0.13-0.17-0.26-0.19-0.4
					c-0.28-1.6-0.55-3.2-0.83-4.8c-0.34-1.98-0.74-3.96-1.02-5.95c-0.15-1.07-0.75-2.13-0.17-3.24c-0.87,0-1.71,0-2.5,0
					c0.06,0.37,0.21,0.7,0.16,1.01c-0.22,1.44-0.49,2.88-0.74,4.32c-0.35,1.98-0.67,3.97-1.05,5.95c-0.26,1.33-0.22,2.76-1.11,3.91
					c-0.01,0.02,0,0.05,0,0.09c0.87,0,1.74,0,2.5,0c0-0.67-0.03-1.32,0.01-1.96c0.03-0.46,0.14-0.91,0.22-1.37
					c0.15-0.86,0.3-1.72,0.46-2.58c0.53,0,1.01,0,1.51,0c0.04,0.16,0.08,0.32,0.11,0.48c0.17,0.95,0.33,1.91,0.51,2.86
					c0.15,0.81,0.34,1.61,0,2.42C133.83,68.41,133.84,68.46,133.83,68.51z M132.04,60.87c0.14-0.84,0.28-1.66,0.42-2.49
					c0.02,0,0.04,0,0.06-0.01c0.14,0.82,0.28,1.63,0.43,2.49C132.62,60.87,132.37,60.87,132.04,60.87z"/>
			</g>
		</g>
		<g>
			<g>
				<path d="M167.21,68.52c-0.19-0.32-0.35-0.59-0.51-0.88c-0.08-0.14-0.18-0.29-0.2-0.45c-0.31-1.78-0.61-3.56-0.92-5.33
					c-0.35-1.98-0.74-3.96-1.03-5.95c-0.13-0.88-0.66-1.77-0.05-2.67c-0.89,0-1.73,0-2.51,0c0.06,0.34,0.2,0.68,0.16,0.99
					c-0.15,1.09-0.36,2.18-0.55,3.26c-0.38,2.17-0.73,4.35-1.15,6.52c-0.3,1.52-0.28,3.13-1.21,4.5c0.88,0,1.76,0,2.68,0
					c-0.29-0.73-0.32-1.44-0.12-2.17c0.1-0.37,0.13-0.76,0.19-1.15c0.15-0.86,0.3-1.72,0.46-2.59c0.52,0,1,0,1.52,0
					c0.11,0.6,0.25,1.19,0.32,1.79c0.15,1.37,0.81,2.7,0.22,4.12C165.43,68.52,166.29,68.52,167.21,68.52z M162.75,60.85
					c0.14-0.83,0.28-1.65,0.42-2.46c0.02-0.01,0.04-0.02,0.06-0.02c0.14,0.82,0.28,1.64,0.43,2.49
					C163.36,60.85,163.08,60.85,162.75,60.85z"/>
			</g>
		</g>
		<g>
			<g>
				<path d="M109.54,68.5c-0.24-0.45-0.57-0.85-0.67-1.3c-0.33-1.58-0.57-3.17-0.84-4.76c-0.37-2.16-0.79-4.31-1.11-6.48
					c-0.13-0.89-0.67-1.79-0.05-2.73c-0.89,0-1.74,0-2.52,0c0.06,0.35,0.2,0.7,0.16,1.02c-0.18,1.25-0.42,2.5-0.64,3.75
					c-0.41,2.33-0.81,4.67-1.23,7c-0.21,1.18-0.24,2.42-1.03,3.43c-0.01,0.01,0.01,0.05,0.02,0.08c0.87,0,1.74,0,2.54,0
					c-0.03-0.54-0.12-1.07-0.08-1.59c0.07-0.79,0.23-1.56,0.36-2.34c0.11-0.67,0.25-1.33,0.37-1.98c0.54,0,1.02,0,1.51,0
					c0.15,0.79,0.33,1.56,0.42,2.34c0.14,1.18,0.7,2.34,0.11,3.55C107.78,68.5,108.65,68.5,109.54,68.5z M105.11,60.85
					c0.15-0.85,0.29-1.67,0.43-2.49c0.02,0,0.03,0,0.05,0c0.14,0.82,0.28,1.65,0.43,2.49C105.7,60.85,105.42,60.85,105.11,60.85z"/>
			</g>
		</g>
		<g>
			<g>
				<path d="M219.27,68.52c-0.12-0.21-0.23-0.39-0.33-0.57c-0.13-0.25-0.33-0.49-0.38-0.76c-0.27-1.39-0.49-2.79-0.74-4.18
					c-0.41-2.36-0.86-4.72-1.22-7.1c-0.13-0.87-0.66-1.77-0.05-2.67c-0.89,0-1.73,0-2.51,0c0.06,0.34,0.21,0.68,0.16,0.99
					c-0.22,1.44-0.49,2.88-0.74,4.32c-0.38,2.16-0.74,4.32-1.14,6.47c-0.21,1.16-0.23,2.39-1.01,3.38c-0.02,0.02,0,0.07,0,0.1
					c0.88,0,1.74,0,2.66,0c-0.29-0.73-0.32-1.44-0.12-2.17c0.1-0.37,0.13-0.76,0.19-1.15c0.15-0.86,0.3-1.72,0.46-2.59
					c0.52,0,1,0,1.52,0c0.11,0.6,0.26,1.19,0.32,1.79c0.14,1.37,0.83,2.7,0.22,4.12C217.48,68.52,218.35,68.52,219.27,68.52z
					 M214.81,60.86c0.14-0.84,0.28-1.66,0.42-2.47c0.02,0,0.04,0,0.06-0.01c0.14,0.82,0.29,1.63,0.43,2.48
					C215.38,60.86,215.12,60.86,214.81,60.86z"/>
			</g>
		</g>
	</g>
</g>
</svg>
