<?xml version="1.0" encoding="utf-8"?>
<!-- Generator: Adobe Illustrator 27.3.1, SVG Export Plug-In . SVG Version: 6.00 Build 0)  -->
<svg version="1.1" id="Layer_1" xmlns="http://www.w3.org/2000/svg" xmlns:xlink="http://www.w3.org/1999/xlink" x="0px" y="0px"
	 viewBox="0 0 282 80" style="enable-background:new 0 0 282 80;" xml:space="preserve">
<style type="text/css">
	.st0{fill-rule:evenodd;clip-rule:evenodd;fill:#111827;}
	.st1{fill:#111827;}
	.st2{fill:#DC2626;}
</style>
<g id="Layer_1_00000083784057974130709740000017094615229087485339_">
	<path class="st0" d="M0.2,0c0.3,0,0.6,0,0.9,0c0.4,1.3,2.4,3.4,3.2,4.5c0,18.2-0.1,36.3-0.1,54.5v16.8L0.9,80
		c-0.3,0-0.6-0.1-0.9-0.1l0.3-0.3c1-1.2,2-2.5,3-3.7c0-17.5,0.1-34.9,0.1-52.4v-19C2.9,3.4,0.1,1.1,0.2,0z"/>
	<path class="st0" d="M3.1,0c3.8,0.1,7.6-0.1,11.4,0c0.6,1.4,1.3,3.1,1.9,4.5c-1,0-4.7-0.4-5.3,0c0,17.6-0.1,35.4-0.1,53
		c0,4.5-0.1,8.9-0.1,13.3c0,1-0.3,4.4,0.1,5h30c-0.6,1.4-1.2,2.8-1.8,4.1C27.2,79.9,15.1,80,3,80c1.1-1.4,2.2-2.8,3.2-4.2
		c0-17.1,0.1-34.3,0.1-51.4c0-6.6,0-13.3,0.1-19.9C5.7,2.9,3.4,1.8,3.1,0z"/>
	<path class="st0" d="M34,20.8h-3.7c-1.5,0.6-3,1.2-4.4,1.8c0-2.8,0-5.5,0.1-8.3c7.6,0,15.1,0.1,22.7,0.1c0,2.8-0.1,5.5-0.1,8.3
		c-2-0.9-4.7-2.6-8-1.8c0,8.5-0.1,17-0.1,25.6c0.8,0.4,1.9,1.2,3.2,0.8c0-3.5,0-6.9,0.1-10.3c-0.6-1.4-1.2-2.8-1.8-4.2v-0.1h19.1
		c0,0,0.1,0,0.1,0.1c0,2.6,0,5.2-0.1,7.8H61c-1.1-0.5-2.2-0.9-3.3-1.4h-7.5c0,2.7,0,5.5-0.1,8.2h6.1c1.3-0.6,2.6-1.1,3.9-1.7
		c0,3.2-0.1,6.5-0.1,9.7c-1.3-0.5-2.5-1.1-3.8-1.6c-2,0-4,0-6.1,0.1c0,7.3-0.1,14.6-0.1,21.9c0.6,1.4,1.1,2.8,1.7,4.1h-9.9
		c0.6-1.4,1.2-2.8,1.8-4.1c0-7.3,0-14.6,0.1-21.9c-1.1,0-2.1,0-3.2,0.1v3.7c0.6,1.4,1.2,2.9,1.8,4.3H42c-3.4,0-6.7-0.1-10.1-0.1
		c1-2,2.8-4.7,1.8-8c-5.8,0-11.6,0-17.4-0.1c0.6-1.4,1.2-2.8,1.8-4.2V36.7c0-10.8,0-21.4,0.1-32.2C17.6,3.1,17,1.4,16.4,0l0,0
		c3.4,0,6.8,0,10.2,0c-0.6,1.4-1.2,3.1-1.8,4.5c0,9.2-0.1,18.4-0.1,27.6c0,5.1,0,10.1-0.1,15.2c0,0,0,0.1,0.1,0.1h7.1
		c0.6-0.3,1.3-0.5,1.9-0.8C33.9,38.1,34,29.4,34,20.8z"/>
	<path class="st0" d="M66.6,4.5c-13.2-0.1-26.5,0.1-39.7,0c0.6-1.4,1.2-3.1,1.8-4.5c15.3,0.1,30.7,0,46,0c-0.1,0.1-0.1-0.1-0.2,0
		c-1,1.3-2,3.2-3,4.5c0,6.5-0.1,13-0.1,19.5L71,75.7c1,1.4,2.1,2.8,3.1,4.2H53.7c-0.6-1.4-1.2-2.8-1.8-4.2l0.1-0.1h14
		C66.2,52,66.4,28.2,66.6,4.5z"/>
	<path class="st0" d="M76.5,0h1c-1.1,1.4-2.2,3.1-3.3,4.5c0,5.3-0.1,10.7-0.1,16C74,33.3,73.9,46,73.8,58.8
		c-0.1,5.7-0.1,11.4-0.1,17.1c1.1,1.3,2.1,2.7,3.2,4V80H76c-1.1-1.4-2.2-2.8-3.2-4.2c0.2-17.5,0.3-34.9,0.5-52.4
		c0-6.3,0.1-12.6,0.1-18.8C74.3,3.1,75.4,1.4,76.5,0z"/>
	<path class="st1" d="M275.2,40.3h-6.5c0.2-0.4,0.4-0.7,0.6-1.1c0.1-0.2,0.1-0.4,0.1-0.6c-0.8-2.9-1.6-5.8-2.3-8.8c0,0,0,0-0.1-0.1
		c-0.1,0.5-0.3,1-0.4,1.5c-0.6,2.4-1.3,4.8-2,7.2c-0.1,0.3-0.1,0.7,0.1,1s0.3,0.6,0.5,0.9h-6.5c0.2-0.7,0.3-1.4,0.6-2
		c0.2-0.6,0.1-1.2,0-1.8c-0.2-1.6-0.5-3.2-0.7-4.8L258,27l-0.7-4.6c-0.2-1.6-0.5-3.2-0.7-4.8L256,13c-0.2-1.6-0.5-3.1-0.7-4.7
		c-0.1-0.4-0.1-0.8-0.1-1.2c0-0.7-0.3-1.2-0.7-1.8s-0.7-1.2-1-1.8h6.4c-0.1,0.6-0.2,1.1-0.5,1.7c-0.3,0.8-0.2,1.6-0.1,2.4
		c0.3,1.8,0.5,3.7,0.8,5.5c0.3,2.2,0.6,4.4,1,6.6c0.3,2,0.5,4,0.8,6c0.2,1.5,0.4,3,0.7,4.5c1.4-5.2,2.8-10.5,4.3-15.7h0.1
		c1.4,5.2,2.8,10.5,4.2,15.7c0,0,0,0,0.1,0c0.1-0.5,0.2-1.1,0.3-1.7c0.3-1.8,0.5-3.6,0.8-5.4l0.8-5.2c0.2-1.5,0.5-3.1,0.7-4.6
		c0.2-1.3,0.4-2.7,0.6-4c0.1-0.9,0.3-1.8,0.4-2.7c0-0.3,0-0.6-0.1-0.9c-0.2-0.7-0.4-1.4-0.6-2.1h6.4c-0.4,0.6-0.7,1.3-1.1,1.9
		c-0.5,0.7-0.6,1.5-0.7,2.3c-0.2,1.8-0.5,3.6-0.8,5.5c-0.2,1.8-0.5,3.5-0.8,5.3s-0.5,3.5-0.8,5.3s-0.5,3.5-0.8,5.3s-0.5,3.5-0.8,5.3
		c-0.1,1-0.3,2-0.4,3.1c0,0.2,0.1,0.5,0.2,0.8C274.8,38.9,275,39.6,275.2,40.3L275.2,40.3z M238,3.5h13.2v5.3
		c-0.8-0.3-1.5-0.7-2.3-0.9c-0.3-0.1-0.7-0.2-1.1-0.2c-1.5,0-3,0-4.5,0v6c0.7,0,1.4,0,2.1,0c1.5,0.1,2.8-0.2,4.1-0.9
		c0.2-0.1,0.5-0.2,0.8-0.4V19c-0.8-0.4-1.6-0.7-2.5-1c-0.2-0.1-0.5-0.1-0.7-0.1c-1.3,0-2.6,0-3.9,0v18.4h0.9c0.3,0,0.7,0,1,0
		c2,0.2,3.9,0,5.7-1c0.1,0,0.2,0,0.3-0.1c-0.2,0.9-0.4,1.8-0.6,2.7c-0.2,0.8-0.3,1.5-0.5,2.3c0,0.1-0.2,0.3-0.3,0.3
		c-3.9,0-7.8,0-11.8,0c0,0,0,0-0.1,0c0.3-0.8,0.7-1.6,1-2.5c0.1-0.2,0.1-0.5,0.1-0.7c0-10.1,0-20.3,0-30.5c0-0.2-0.1-0.5-0.1-0.7
		C238.7,5.2,238.4,4.4,238,3.5L238,3.5z M227.9,13.7c1.4,0,2.8,0,4.1,0c0.4,0,0.7-0.2,1-0.4c0.6-0.2,1.2-0.5,1.9-0.8V19
		c-0.8-0.3-1.5-0.7-2.3-1c-0.3-0.1-0.7-0.2-1.1-0.2c-1.2,0-2.4,0-3.7,0v0.5c0,6.3,0,12.6,0,18.9c0,0.2,0.1,0.5,0.1,0.7
		c0.3,0.8,0.6,1.6,1,2.4h-6.4c0.3-0.8,0.7-1.6,1-2.4c0.1-0.3,0.2-0.5,0.2-0.8c0-10.1,0-20.2,0-30.3c0-0.3-0.1-0.5-0.2-0.8
		c-0.3-0.8-0.7-1.6-1-2.5h13.2v5.3c-0.8-0.3-1.5-0.6-2.3-0.9c-0.4-0.1-0.8-0.2-1.2-0.2c-1.5,0-2.9,0-4.4,0L227.9,13.7L227.9,13.7z
		 M118.2,3.5h6.5c-0.1,0.9-0.2,1.7-0.3,2.6c0,0.1,0,0.3,0,0.4l2,7.6c0,0,0,0,0.1,0.1c0.2-0.8,0.5-1.7,0.7-2.5c0.4-1.6,0.9-3.3,1.3-5
		c0.1-0.5,0-1.1-0.1-1.6s-0.1-1-0.2-1.5h6.4c-0.1,0.2-0.3,0.4-0.4,0.6c-1.1,1.4-1.8,2.9-2.2,4.6c-1.1,4.3-2.3,8.6-3.4,12.9
		c-0.1,0.2-0.1,0.4-0.1,0.7c0,5,0,10,0,15c0,0.2,0.1,0.5,0.1,0.7c0.3,0.8,0.6,1.6,1,2.4h-6.4c0.3-0.8,0.7-1.7,1-2.5
		c0.1-0.2,0.2-0.5,0.2-0.7c0-4.3,0-8.6,0-12.9c0-1.5-0.2-2.8-0.6-4.2c-1.2-4.4-2.4-8.9-3.6-13.3c-0.1-0.3-0.3-0.6-0.5-0.9
		C119.3,5,118.8,4.3,118.2,3.5z M189.4,7.7v0.6c0,9.5,0,19.1,0,28.7c0,0.3,0.1,0.7,0.2,1c0.3,0.8,0.6,1.5,1,2.3h-6.4
		c0.3-0.8,0.7-1.6,1-2.4c0.1-0.2,0.2-0.5,0.2-0.8c0-9.7,0-19.4,0-29.1V7.7c-2-0.4-3.8,0.2-5.5,1.1V3.5H195v5.3
		C193.2,8,191.4,7.3,189.4,7.7L189.4,7.7z M92.7,36.2c1.7,0,3.3,0,5,0c0.1,0,0.3-0.1,0.4-0.1c0.8-0.3,1.7-0.7,2.6-1.1
		c-0.1,0.7-0.3,1.2-0.4,1.8c-0.2,1.1-0.5,2.2-0.7,3.2c0,0.1-0.2,0.3-0.3,0.3c-3.9,0-7.8,0-11.7,0h-0.1c0.3-0.8,0.7-1.6,1-2.4
		c0.1-0.2,0.2-0.5,0.2-0.7c0-10.2,0-20.3,0-30.5c0-0.2-0.1-0.5-0.2-0.7c-0.3-0.8-0.7-1.6-1-2.5h6.4c-0.3,0.7-0.6,1.4-0.9,2.2
		c-0.1,0.3-0.2,0.7-0.2,1.1c0,9.6,0,19.2,0,28.8C92.7,35.8,92.7,36,92.7,36.2z M155.2,40.3c0.4-0.9,0.7-1.7,1.1-2.5
		c0.1-0.2,0.1-0.4,0.1-0.7c0-10.2,0-20.3,0-30.5c0-0.2-0.1-0.4-0.1-0.6c-0.3-0.8-0.7-1.6-1-2.5h6.5c-0.4,0.8-0.7,1.6-1,2.4
		c-0.1,0.2-0.1,0.4-0.1,0.6c0,9.8,0,19.5,0,29.3v0.3h0.5c1.4,0,2.8,0,4.1,0c0.3,0,0.6-0.1,0.9-0.2c0.8-0.3,1.6-0.7,2.5-1
		c-0.2,0.8-0.3,1.6-0.5,2.3c-0.2,0.9-0.4,1.8-0.6,2.7c0,0.1-0.2,0.3-0.3,0.3C163.2,40.4,159.2,40.4,155.2,40.3L155.2,40.3z M116.8,6
		c-0.3-0.8-0.6-1.5-0.9-2.2c-0.1-0.1-0.3-0.3-0.4-0.3c-3.7,0-7.4,0-11.2,0c-0.1,0-0.3,0.1-0.4,0.3c-0.3,0.6-0.5,1.2-0.8,1.8
		c-0.1,0.4-0.3,0.9-0.3,1.3c0,5,0,10,0,15v15.3c0,0.2,0,0.5,0.1,0.7c0.3,0.7,0.6,1.4,0.9,2.2c0.1,0.2,0.2,0.3,0.5,0.3
		c3.7,0,7.4,0,11.1,0c0.3,0,0.4-0.1,0.5-0.3c0.3-0.7,0.6-1.4,0.9-2.2c0.1-0.2,0.1-0.4,0.1-0.6c0-10.2,0-20.5,0-30.7
		C116.9,6.4,116.9,6.2,116.8,6L116.8,6z M112.7,36.2H107V7.7h5.7V36.2z M211.3,6.6c0-0.2,0-0.4-0.1-0.6c-0.3-0.7-0.6-1.5-0.9-2.2
		c-0.1-0.2-0.2-0.3-0.5-0.3c-3.7,0-7.4,0-11.1,0c-0.3,0-0.4,0.1-0.5,0.3c-0.2,0.6-0.5,1.2-0.8,1.9c-0.1,0.4-0.2,0.8-0.2,1.2
		c0,5,0,10,0,15.1v15.4c0,0.2,0,0.4,0.1,0.6c0.3,0.7,0.6,1.5,0.9,2.2c0.1,0.2,0.2,0.3,0.5,0.3c3.7,0,7.4,0,11.1,0
		c0.3,0,0.4-0.1,0.5-0.3c0.3-0.8,0.6-1.5,0.9-2.2c0.1-0.2,0.1-0.3,0.1-0.5C211.3,27,211.3,16.8,211.3,6.6L211.3,6.6z M207.1,36.2
		h-5.7V7.7h5.7V36.2z M147.5,40.3h6.4c-0.5-0.8-1-1.7-1.5-2.5c-0.1-0.2-0.2-0.3-0.2-0.5c-0.4-2.1-0.7-4.2-1.1-6.3
		c-0.5-2.8-1-5.7-1.5-8.5c-0.5-2.7-0.9-5.3-1.4-8c-0.5-2.9-1-5.8-1.5-8.7c-0.1-0.5-0.1-1,0.2-1.5c0.2-0.2,0.3-0.6,0.5-0.9H141
		c0.2,0.4,0.5,0.8,0.7,1.2c0.1,0.2,0.1,0.5,0.1,0.7c-0.2,1.4-0.5,2.9-0.7,4.3c-0.4,2.2-0.7,4.3-1.1,6.5l-1.1,6.5l-1.1,6.4
		c-0.4,2.2-0.8,4.3-1.1,6.5c-0.2,1.2-0.4,2.3-1.1,3.2c-0.3,0.4-0.6,0.9-0.9,1.4h6.5c-0.1-0.4-0.2-0.8-0.3-1.2
		c-0.1-0.6-0.4-1.2-0.3-1.8c0.3-2.2,0.7-4.4,1.1-6.6c0.3-1.6,0.6-3.1,0.8-4.7h3.7c0.2,0.9,0.3,1.8,0.5,2.6c0.4,2.5,0.8,5,1.3,7.4
		c0.2,0.9,0.2,1.8-0.1,2.7C147.7,39.3,147.6,39.8,147.5,40.3L147.5,40.3z M143.1,21.9c0.4-2.1,0.7-4.2,1.1-6.2h0.1
		c0.4,2.1,0.7,4.1,1.1,6.2C145.4,21.9,143.1,21.9,143.1,21.9z"/>
	<g>
		<path class="st2" d="M94.4,73.8c0-1-0.1-2.3-0.1-3.4l0,0c-0.3,1-0.6,2.1-1,3.1L92.1,77H91l-1.1-3.5c-0.3-1-0.6-2.1-0.8-3.1l0,0
			c0,1.1-0.1,2.3-0.1,3.4L88.8,77h-1.4l0.5-8.1h1.9l1.1,3.3c0.3,0.9,0.5,1.9,0.7,2.8l0,0c0.2-0.9,0.5-1.9,0.8-2.8l1.1-3.2h1.9
			l0.5,8.1h-1.4L94.4,73.8z"/>
		<path class="st2" d="M99,74.8l-0.7,2.3h-1.5l2.6-8.1h1.9l2.6,8.1h-1.6l-0.7-2.3H99z M101.3,73.7l-0.6-2c-0.2-0.5-0.3-1-0.4-1.5
			l0,0c-0.1,0.5-0.2,1-0.4,1.5l-0.6,2H101.3z"/>
		<path class="st2" d="M105,69.1c0.6-0.1,1.5-0.2,2.4-0.2c1.5,0,2.6,0.3,3.3,0.9c0.8,0.6,1.3,1.6,1.3,3s-0.5,2.5-1.3,3.2
			s-2.1,1.1-3.7,1.1c-0.9,0-1.5,0-2-0.1C105,77,105,69.1,105,69.1z M106.5,75.9c0.2,0,0.5,0,0.8,0c1.9,0,3.1-1,3.1-3.1
			c0-1.8-1-2.8-2.9-2.8c-0.5,0-0.8,0-1,0.1V75.9z"/>
		<path class="st2" d="M117.8,73.5h-3v2.4h3.4v1.2h-4.9V69h4.7v1.2h-3.2v2.1h3V73.5z"/>
		<path class="st2" d="M123.4,69v8.1h-1.5V69H123.4z"/>
		<path class="st2" d="M125.1,77.1V69h1.7l2.1,3.5c0.5,0.9,1,1.8,1.4,2.7l0,0c-0.1-1.1-0.1-2.1-0.1-3.4V69h1.4v8.1H130l-2.1-3.5
			c-0.5-0.9-1.1-1.9-1.5-2.8l0,0c0.1,1,0.1,2.1,0.1,3.4v2.9H125.1z"/>
		<path class="st2" d="M136.7,70.2h-2.3V69h6.1v1.2h-2.3V77h-1.5V70.2z"/>
		<path class="st2" d="M143,69v3.2h3.4V69h1.5v8.1h-1.5v-3.6H143v3.6h-1.5V69H143z"/>
		<path class="st2" d="M154.1,73.5h-3v2.4h3.4v1.2h-4.9V69h4.7v1.2H151v2.1h3v1.2H154.1z"/>
		<path class="st2" d="M159.7,69v4.7c0,1.6,0.7,2.3,1.7,2.3c1.1,0,1.7-0.7,1.7-2.3V69h1.5v4.6c0,2.5-1.3,3.6-3.2,3.6s-3.1-1-3.1-3.6
			V69H159.7z"/>
		<path class="st2" d="M166.2,75.5c0.5,0.3,1.2,0.5,2,0.5c0.9,0,1.5-0.4,1.5-1.1c0-0.6-0.4-1-1.4-1.3c-1.3-0.5-2.2-1.2-2.2-2.4
			c0-1.3,1.1-2.3,2.9-2.3c0.9,0,1.5,0.2,1.9,0.4l-0.4,1.2c-0.3-0.2-0.9-0.4-1.6-0.4c-0.9,0-1.3,0.5-1.3,1c0,0.6,0.5,0.9,1.5,1.3
			c1.4,0.5,2.1,1.2,2.1,2.4c0,1.3-1,2.4-3.1,2.4c-0.9,0-1.7-0.2-2.2-0.5L166.2,75.5z"/>
		<path class="st2" d="M174.1,74.8l-0.7,2.3h-1.5l2.6-8.1h1.9l2.6,8.1h-1.6l-0.7-2.3H174.1z M176.4,73.7l-0.6-2
			c-0.2-0.5-0.3-1-0.4-1.5l0,0c-0.1,0.5-0.2,1-0.4,1.5l-0.6,2H176.4z"/>
	</g>
</g>
<g id="Layer_2_00000038403298944074432020000010368451612413794978_">
	<path class="st1" d="M142.4,46.9c1,0,1.9,0,2.8,0c0.3,0,0.3,0.1,0.4,0.3c0.3,1.3,0.8,2.7,1.1,4c0,0.1,0.1,0.2,0.1,0.4
		c0.4-1.6,0.9-3,1.2-4.5c0.1-0.3,0.1-0.4,0.4-0.4c0.9,0,1.8,0,2.7,0c-0.8,1.2-0.6,2.5-0.6,3.7c0,3.5,0,6.9,0,10.3
		c0,1-0.1,2.1,0.6,3.1h-3.1c0.8-1.2,0.6-2.5,0.6-3.8c0-2.5,0-4.8,0-7.2v-0.6h-0.1l-1.8,6.5h-0.1c-0.6-2.1-1.1-4.3-1.8-6.5h-0.1
		c0,0.1,0,0.2,0,0.3c0,3.1,0,6.4,0,9.6c0,0.2,0.1,0.6,0.1,0.8c0.1,0.2,0.2,0.6,0.3,0.9h-3c0.9-1.3,0.6-2.7,0.6-4.1
		c0-3.4,0-6.7,0-10.1C143,48.9,143.1,47.9,142.4,46.9L142.4,46.9z M207.7,64h-3.1c0.4-0.6,0.2-1.1,0.1-1.7c-0.2-1-0.6-2-0.9-3.2
		c-0.3,1.1-0.6,2-0.9,3c0,0.1-0.1,0.3-0.1,0.4c-0.1,0.4-0.3,0.9,0.2,1.3h-2.9v-0.1c0.4-1.1,0.1-2.2,0-3.4c-0.2-1.6-0.4-3-0.7-4.6
		c-0.2-1.7-0.4-3.5-0.8-5.3c-0.1-0.4-0.1-0.9-0.2-1.3c-0.2-0.8-0.4-1.6-0.7-2.4h2.9c-0.7,1.3-0.1,2.7,0,4c0.1,1.6,0.4,3,0.7,4.6
		c0.2,1.2,0.3,2.5,0.6,3.6c0.7-2.4,1.2-4.7,1.9-7.2h0.1c0.7,2.4,1.2,4.7,1.9,7.1h0.1c0.4-3.1,0.9-6.3,1.3-9.4
		c0.1-0.9,0.2-1.8-0.1-2.7h2.9V47c-0.8,1.1-0.8,2.4-1,3.6c-0.2,1.8-0.6,3.6-0.8,5.4c-0.2,1.7-0.4,3.5-0.8,5.2
		C207.4,62.1,207.2,63,207.7,64L207.7,64z M169.6,64c0.8-1,0.6-2.2,0.6-3.2c0-3.5,0-6.9,0-10.4c0-1.1,0.2-2.4-0.6-3.4h3
		c0,0,0,0,0,0.1c-0.6,0.9-0.4,2-0.4,3c0,0.9,0,1.7,0.1,2.6c0.3-0.7,0.6-1.3,0.9-1.9c0.2-0.3,0.4-0.8,0.6-1.2
		c0.3-0.8,0.6-1.7,0.8-2.6h2.8c-0.1,0.1-0.1,0.2-0.2,0.3c-0.6,0.6-1,1.2-1.3,2c-0.6,1.2-1.1,2.6-1.7,3.8c-0.1,0.2-0.1,0.4,0,0.7
		c0.8,2.9,1.6,5.8,2.4,8.7c0.1,0.6,0.6,1,0.9,1.6h-2.9c0.3-2.2-0.8-4.1-1.2-6.2c-0.1-0.6-0.3-1.1-0.4-1.7c-0.9,1.2-0.4,2.6-0.4,3.9
		s-0.3,2.7,0.6,3.9C171.7,64,170.7,64,169.6,64z M137.7,48.8v2.8c1.1,0.1,2.2,0.1,3.2-0.6v3.1c-1-0.7-2.1-0.7-3.2-0.6v8.5
		c1.2,0,2.5,0.2,3.7-0.7c-0.2,0.9-0.4,1.8-0.6,2.6h-5.6v-0.1c0.6-0.9,0.4-1.9,0.4-2.8c0-3.6,0-7.2,0-10.8c0-1.1,0.2-2.4-0.6-3.4h6.2
		v2.4c-0.6-0.1-1.1-0.3-1.8-0.4C139,48.8,138.4,48.8,137.7,48.8L137.7,48.8z M180.5,48.9v2.8c1.1,0.1,2.2,0.1,3.2-0.6v3.1
		c-1-0.7-2.1-0.7-3.2-0.6v8.5c0.6,0,1.2,0.1,1.8,0s1.1-0.2,1.8-0.4c-0.1,0.6-0.2,1.1-0.3,1.7c-0.1,0.8-0.1,0.8-0.9,0.8H178
		c0-0.1,0-0.1,0-0.1c0.4-0.8,0.4-1.8,0.4-2.7c0-3.7,0-7.3,0-11c0-1.1,0.2-2.4-0.6-3.4h6.2v2.5C183,48.7,181.7,48.8,180.5,48.9
		L180.5,48.9z M268.9,46.9h6.2v2.5c-1.1-0.8-2.4-0.6-3.6-0.6v2.8c1.1,0.1,2.2,0.1,3.2-0.6v3.1c-1-0.7-2.1-0.7-3.2-0.6v8.5
		c1.2,0,2.5,0.2,3.7-0.7c-0.2,1-0.3,1.8-0.6,2.6H269v-0.1c0.4-0.8,0.4-1.7,0.4-2.6c0-3.7,0-7.3,0-11C269.6,49.3,269.7,48,268.9,46.9
		z M245.5,54.1c-0.6-0.2-1-0.4-1.6-0.4c-0.6-0.1-1.1,0-1.7,0c0,0.2,0,0.3,0,0.6c0,2.8,0,5.5,0,8.2c0,0.6,0.2,1.1,0.4,1.7h-2.9v-0.1
		c0.4-0.8,0.4-1.8,0.4-2.7c0-3.7,0-7.3,0-11c0-0.6,0.1-1.2,0-1.8c-0.1-0.6-0.2-1.1-0.4-1.7h6v2.4c-0.6-0.1-1.1-0.3-1.8-0.4
		c-0.7-0.1-1.2,0-1.8,0v2.8c1.1,0.1,2.2,0.1,3.2-0.7L245.5,54.1L245.5,54.1z M261.6,46.9h6.3v2.5c-1.1-0.8-2.4-0.6-3.6-0.6v2.8
		c0.6,0,1.1,0.1,1.7,0c0.6-0.1,1-0.3,1.6-0.6v3c-1-0.6-2.1-0.7-3.4-0.6v0.6c0,2.4,0,4.8,0,7.2c0,0.9,0,1.9,0.6,2.7h-3
		c0.8-1.2,0.6-2.5,0.6-3.7c0-3.4,0-6.8,0-10.2C262.3,49,262.4,47.9,261.6,46.9L261.6,46.9z M226.9,46.9c-1.3,1.6-1.3,3.6-2,5.4
		c-0.1,0.4-0.2,0.9-0.3,1.3c-0.3,1.2-0.6,2.5-0.4,3.7c0.1,1.5,0,3,0,4.6c0,0.6,0,1.1,0.3,1.7c0.1,0.1,0.1,0.3,0.1,0.4h-2.9
		c0-0.1,0-0.1,0-0.1c0.6-0.9,0.4-1.9,0.4-2.9c0-1.3,0-2.6,0-3.9c0-1.1-0.1-2.2-0.4-3.4c-0.4-1.5-0.8-2.9-1.2-4.4
		c-0.2-0.9-0.7-1.7-1-2.5h2.9c-0.6,1.7,0.4,3.1,0.8,4.7c0.3-1.6,1.2-3,0.8-4.7C224.7,47,225.7,47,226.9,46.9z M101.6,46.9h7.1v2.5
		c-0.9-0.2-1.6-0.8-2.6-0.4c0,0.1,0,0.3,0,0.4c0,4.4,0,8.7,0,13c0,0.6,0.2,1.1,0.4,1.7h-3c0.9-1.3,0.6-2.7,0.6-4.1
		c0-3.5,0-6.9,0-10.4v-0.6c-0.9-0.3-1.7,0.1-2.5,0.4C101.6,49.4,101.6,46.9,101.6,46.9z M253.6,62.1c1.2,0,2.5,0.2,3.6-0.6l0.1,0.1
		c-0.1,0.8-0.3,1.5-0.6,2.2c0,0.1-0.1,0.1-0.2,0.1c-1.8,0-3.6,0-5.5,0c0.9-1.2,0.6-2.6,0.6-3.9c0-3.4,0-6.7,0-10.1
		c0-1.1,0.1-2.1-0.6-3.1h3V47c-0.4,0.8-0.4,1.7-0.4,2.6c0,3.9,0,7.8,0,11.8C253.6,61.7,253.6,61.9,253.6,62.1L253.6,62.1z
		 M257.6,46.9h3c0,0.1,0,0.1,0,0.2c-0.4,0.8-0.4,1.7-0.4,2.6c0,3.7,0,7.4,0,11.1c0,1.1-0.2,2.4,0.6,3.4h-3V64
		c0.4-0.8,0.4-1.7,0.4-2.6c0-3.7,0-7.4,0-11.1C258.2,49.1,258.3,48,257.6,46.9z M115.2,56.7c-0.1-1-0.3-2-0.4-3c0.4,0,0.9,0,1.3,0
		c0.1,0,0.3-0.1,0.4-0.2c0.3-0.6,0.6-1.2,0.4-1.9c0-0.7,0-1.5,0-2.1c0-0.7-0.1-1.3-0.3-1.9c-0.1-0.3-0.2-0.3-0.6-0.3
		c-1.9,0-3.8,0-5.8,0c-0.1,0-0.2,0-0.4,0c0.8,1,0.6,2.1,0.6,3.1c0,3.4,0,6.7,0,10.1c0,1.3,0.2,2.6-0.6,3.8h3
		c-0.1-0.6-0.3-1.1-0.4-1.7c0-2.7,0-5.5,0-8.2v-0.4c0.3-0.1,0.4,0,0.6,0.3c0.1,1,0.3,2,0.4,3c0.2,1.8,0.6,3.6,0.8,5.4
		c0.1,0.6-0.1,1.1-0.1,1.7h2.8c-0.2-0.7-0.6-1.3-0.7-2C115.7,60.2,115.5,58.4,115.2,56.7z M112.4,51.6v-2.7h2.6v2.8h-2.6V51.6z
		 M167.8,62.1c-0.3-2.4-0.7-4.6-1.1-6.8c-0.1-0.6-0.1-1.1-0.2-1.7c0.4,0,0.9,0,1.3,0c0.1,0,0.3-0.1,0.4-0.2c0.3-0.6,0.6-1.2,0.4-1.9
		c0-0.7,0-1.5,0-2.1c0-0.7-0.1-1.3-0.4-1.9c-0.1-0.2-0.2-0.3-0.6-0.3c-0.9,0-1.8,0-2.8,0h-3.5c0.8,1.1,0.6,2.2,0.6,3.4
		c0,3.6,0,7.1,0,10.6c0,1,0.1,2.1-0.6,3h3c-0.1-0.6-0.4-1.1-0.4-1.7c0-2.8,0-5.5,0-8.3v-0.4c0.4-0.1,0.4,0.1,0.6,0.3
		c0.2,1.2,0.3,2.5,0.6,3.6c0.2,1.6,0.6,3.1,0.7,4.7c0.1,0.6-0.1,1.1-0.1,1.7h2.9c-0.2-0.3-0.3-0.6-0.4-0.9
		C168.1,62.8,167.8,62.5,167.8,62.1L167.8,62.1z M164,51.6v-2.7h2.6v2.8H164V51.6z M191.8,47c0-0.1-0.2-0.1-0.3-0.1
		c-2.1,0-4.1,0-6.3,0c0.1,0.2,0.1,0.3,0.1,0.4c0.3,0.6,0.3,1.1,0.3,1.8c0,4,0,8,0,12c0,1,0.1,2-0.7,3c2.2,0,4.4,0,6.4,0
		c0.1,0,0.3-0.1,0.3-0.1c0.2-0.6,0.4-1.1,0.4-1.6c0-4.5,0-9.1,0-13.7C192.3,48.1,191.9,47.6,191.8,47z M190.2,62.1h-2.6V48.9h2.6
		V62.1z M133.9,47.4c-0.1-0.3-0.2-0.3-0.6-0.3c-1.9,0-3.8,0-5.7,0c-0.1,0-0.2,0-0.6,0c0.7,1,0.6,2,0.6,3.1c0,3.4,0,6.6,0,10
		c0,1.3,0.3,2.8-0.6,4c2.2,0,4.3,0,6.4,0c0.1,0,0.2-0.1,0.3-0.1c0.2-0.6,0.4-1.1,0.4-1.7c0-4.4,0-8.7,0-13.1
		C134.2,48.5,134.1,47.9,133.9,47.4z M132.2,62.1h-2.6V48.9h2.6V62.1z M238.2,47c0-0.1-0.2-0.1-0.3-0.1c-1.7,0-3.2,0-4.9,0
		c-0.1,0-0.3,0-0.3,0.1c-0.2,0.4-0.4,1-0.4,1.5c0,2.4,0,4.6,0,6.9s0,4.7,0,7.1c0,0.4,0.2,1,0.4,1.5c0,0.1,0.2,0.1,0.3,0.1
		c1.7,0,3.2,0,4.9,0c0.1,0,0.3,0,0.3-0.1c0.2-0.6,0.4-1,0.4-1.6c0-4.6,0-9.2,0-13.8C238.6,48.1,238.3,47.6,238.2,47z M236.6,62.1
		h-2.7V48.9h2.7V62.1z M123.5,64h3c-0.2-0.3-0.4-0.7-0.6-1c-0.1-0.1-0.2-0.3-0.2-0.4c-0.3-1.8-0.7-3.6-0.9-5.4
		c-0.3-2.2-0.8-4.5-1.1-6.7c-0.1-1.2-0.9-2.4-0.2-3.6h-2.9c0.1,0.4,0.2,0.8,0.2,1.1c-0.2,1.6-0.6,3.2-0.8,4.8
		c-0.4,2.2-0.8,4.5-1.2,6.6c-0.3,1.5-0.2,3.1-1.2,4.4v0.1h2.8c0-0.8,0-1.5,0-2.2c0-0.6,0.1-1,0.2-1.6c0.1-1,0.3-1.9,0.6-2.9h1.7
		c0,0.2,0.1,0.3,0.1,0.6c0.2,1.1,0.3,2.1,0.6,3.2c0.1,0.9,0.3,1.8,0,2.7C123.5,63.9,123.5,64,123.5,64L123.5,64z M121.4,55.5
		c0.1-0.9,0.3-1.9,0.4-2.8c0,0,0,0,0.1,0c0.1,0.9,0.3,1.8,0.4,2.8C122.1,55.5,121.8,55.5,121.4,55.5L121.4,55.5z M160.9,64
		c-0.2-0.3-0.4-0.7-0.6-1c-0.1-0.1-0.2-0.3-0.2-0.4c-0.3-2-0.7-4-1-5.9c-0.4-2.2-0.8-4.5-1.1-6.7c-0.1-1-0.8-2-0.1-3h-2.8
		c0.1,0.3,0.2,0.8,0.2,1.1c-0.1,1.2-0.4,2.5-0.7,3.7c-0.4,2.5-0.8,4.8-1.2,7.3c-0.3,1.7-0.3,3.5-1.3,5h3c-0.3-0.8-0.3-1.7-0.1-2.5
		c0.1-0.4,0.1-0.9,0.2-1.3c0.1-1,0.3-1.9,0.6-2.9h1.7c0.1,0.7,0.2,1.3,0.3,2c0.1,1.6,0.9,3,0.2,4.6C158.9,64,159.8,64,160.9,64
		L160.9,64z M155.8,55.4c0.1-0.9,0.3-1.9,0.4-2.8c0,0,0,0,0.1,0c0.1,0.9,0.3,1.8,0.4,2.8C156.5,55.5,156.2,55.5,155.8,55.4
		L155.8,55.4z M96.2,64c-0.2-0.4-0.7-0.9-0.8-1.5c-0.3-1.8-0.7-3.6-0.9-5.4c-0.4-2.5-0.9-4.8-1.2-7.3c-0.1-1-0.8-2-0.1-3h-2.8
		c0.1,0.3,0.2,0.8,0.2,1.1c-0.2,1.3-0.4,2.8-0.7,4.3c-0.4,2.6-0.9,5.3-1.3,7.8c-0.2,1.3-0.2,2.7-1.1,3.8V64h2.8
		c0-0.6-0.1-1.2-0.1-1.8c0.1-0.9,0.2-1.8,0.4-2.6c0.1-0.8,0.2-1.5,0.4-2.2h1.7c0.2,0.9,0.3,1.8,0.4,2.6c0.1,1.3,0.8,2.6,0.1,4
		C94.2,64,95.2,64,96.2,64L96.2,64z M91.3,55.4c0.2-0.9,0.3-1.9,0.4-2.8h0.1c0.1,0.9,0.3,1.9,0.4,2.8H91.3z M219.1,64
		c-0.1-0.2-0.2-0.4-0.3-0.7c-0.1-0.2-0.3-0.6-0.4-0.9c-0.3-1.6-0.6-3.1-0.8-4.7c-0.4-2.7-1-5.3-1.3-8c-0.1-1-0.8-2-0.1-3h-2.8
		c0.1,0.3,0.2,0.8,0.2,1.1c-0.2,1.6-0.6,3.2-0.8,4.8c-0.4,2.5-0.8,4.8-1.2,7.3c-0.2,1.3-0.2,2.7-1.1,3.8v0.1h3
		c-0.3-0.8-0.3-1.7-0.1-2.5c0.1-0.4,0.1-0.9,0.2-1.3c0.1-1,0.3-1.9,0.6-2.9h1.7c0.1,0.7,0.3,1.3,0.3,2c0.1,1.6,0.9,3,0.2,4.6
		C217.1,64,218.1,64,219.1,64L219.1,64z M214.2,55.5c0.1-0.9,0.3-1.9,0.4-2.8c0,0,0,0,0.1,0c0.1,0.9,0.3,1.8,0.4,2.8H214.2
		L214.2,55.5z"/>
</g>
</svg>
