<svg xmlns="http://www.w3.org/2000/svg" xml:space="preserve" id="Layer_1" x="0" y="0" style="enable-background:new 0 0 282 80;height:100%;width:100%" version="1.1" viewBox="0 0 282 80"><style>.st0{fill-rule:evenodd;clip-rule:evenodd}</style><path d="M.21.02c.31.02.61-.02.92 0 .36 1.26 2.43 3.39 3.24 4.49-.04 18.23-.09 36.31-.14 54.53v16.83L.85 80c-.29-.02-.57-.05-.85-.07l.28-.28c.99-1.23 1.97-2.47 2.96-3.7.05-17.46.09-34.93.14-52.39V4.51C2.94 3.41.12 1.11.21.02z" class="st0"/><path d="M3.1.02c3.81.07 7.62-.07 11.43 0 .63 1.42 1.27 3.07 1.9 4.49-1.02-.02-4.74-.39-5.29 0-.02 17.62-.05 35.38-.07 53-.02 4.45-.05 8.89-.07 13.34 0 1.01-.26 4.39.14 4.96h29.97c-.59 1.37-1.18 2.75-1.76 4.12-12.13.02-24.26.05-36.39.07 1.08-1.4 2.16-2.79 3.24-4.19.03-17.14.05-34.28.08-51.41.02-6.64.04-13.26.07-19.89C5.71 2.92 3.44 1.84 3.1.02z" class="st0"/><path d="M33.99 20.84h-3.67c-1.48.61-2.96 1.21-4.44 1.82.02-2.77.05-5.54.07-8.31 7.57.02 15.14.05 22.71.07-.05 2.77-.09 5.54-.14 8.31-1.98-.89-4.74-2.63-8.04-1.75-.05 8.52-.09 17.04-.14 25.57.82.4 1.93 1.18 3.17.84.02-3.45.05-6.89.07-10.34-.61-1.4-1.22-2.79-1.83-4.19v-.07h19.11c.05.02.09.05.14.07-.02 2.61-.05 5.22-.07 7.82h-.07c-1.1-.47-2.21-.93-3.31-1.4h-7.48c-.02 2.72-.04 5.45-.07 8.17h6.07c1.29-.56 2.59-1.12 3.88-1.68-.05 3.24-.09 6.47-.14 9.71-1.27-.54-2.54-1.07-3.81-1.61-2.02.02-4.04.05-6.07.07-.05 7.29-.09 14.58-.14 21.86.56 1.37 1.13 2.75 1.69 4.12h-9.94c.61-1.37 1.22-2.75 1.83-4.12.02-7.31.05-14.62.07-21.93-1.06.02-2.12.05-3.17.07v3.7c.61 1.44 1.22 2.89 1.83 4.33h-.07c-3.36-.05-6.72-.09-10.09-.14.95-1.95 2.75-4.66 1.83-8.03-5.78-.02-11.57-.05-17.35-.07.61-1.4 1.22-2.79 1.83-4.19V36.69c.02-10.76.05-21.43.07-32.18-.59-1.37-1.18-3.11-1.76-4.49 0-.02 0 .02 0 0 3.38.02 6.77-.02 10.16 0-.59 1.4-1.18 3.09-1.76 4.49-.05 9.2-.09 18.38-.14 27.57-.02 5.08-.05 10.15-.07 15.23.02.05.05.09.07.14h7.12c.63-.26 1.27-.51 1.9-.77.06-8.61.11-17.23.15-25.84z" class="st0"/><path d="M66.58 4.51c-13.23-.05-26.47.05-39.71 0 .61-1.4 1.22-3.09 1.83-4.49 15.33.07 30.66-.07 45.98 0-.07.07-.14-.07-.21 0-1.01 1.28-2.02 3.21-3.03 4.49-.04 6.49-.09 13.04-.14 19.54l-.42 51.69c1.03 1.4 2.07 2.79 3.1 4.19H53.74c-.59-1.4-1.18-2.79-1.76-4.19l.07-.07h14.03c.17-23.68.33-47.48.5-71.16z" class="st0"/><path d="M76.52.02h.99c-1.1 1.4-2.21 3.09-3.31 4.49-.02 5.31-.05 10.74-.07 16.05-.12 12.73-.24 25.47-.35 38.21-.05 5.7-.09 11.41-.14 17.11 1.06 1.33 2.12 2.65 3.17 3.98v.07h-.92c-1.08-1.4-2.16-2.79-3.24-4.19.16-17.46.33-34.93.49-52.39.02-6.26.05-12.58.07-18.84 1.1-1.38 2.21-3.12 3.31-4.49z" class="st0"/><g id="mntkGs_00000139989327850333947370000007437822044447576713_"><path d="M276.74 48.33h-6.45c.21-.39.41-.73.57-1.09.08-.18.14-.41.09-.58-.77-2.92-1.56-5.84-2.34-8.76-.01-.02-.04-.04-.11-.12-.15.53-.29 1.01-.42 1.5-.65 2.38-1.3 4.77-1.96 7.15-.1.35-.12.65.12.96.2.27.34.59.54.93h-6.45c.19-.68.33-1.37.56-2.03.21-.6.14-1.17.05-1.76-.23-1.6-.46-3.19-.7-4.79l-.69-4.7-.66-4.61c-.23-1.6-.47-3.19-.7-4.79l-.66-4.66c-.22-1.57-.46-3.13-.68-4.7a14.7 14.7 0 0 1-.15-1.16c-.05-.68-.34-1.25-.68-1.82-.35-.57-.66-1.17-1.01-1.8h6.44c-.15.56-.25 1.13-.45 1.66-.31.8-.24 1.6-.12 2.41.28 1.85.53 3.69.8 5.54.32 2.2.65 4.4.97 6.6.29 2 .55 3.99.84 5.99.21 1.48.44 2.95.73 4.46 1.42-5.25 2.84-10.49 4.27-15.74h.09c1.4 5.24 2.81 10.48 4.21 15.72.02 0 .05 0 .07.01.09-.55.18-1.1.26-1.65.26-1.8.53-3.6.79-5.41l.75-5.23c.22-1.55.46-3.1.68-4.65.19-1.33.39-2.66.58-3.99.13-.9.27-1.8.36-2.71.03-.31-.05-.64-.13-.95-.17-.69-.37-1.37-.57-2.07h6.41c-.37.65-.67 1.29-1.06 1.86-.47.7-.6 1.48-.71 2.28-.25 1.82-.53 3.63-.79 5.45-.25 1.77-.49 3.55-.75 5.32-.26 1.77-.53 3.54-.78 5.32-.26 1.77-.49 3.55-.75 5.32-.26 1.77-.53 3.54-.79 5.31-.15 1.02-.31 2.04-.42 3.06-.03.25.09.52.16.78.22.72.43 1.42.64 2.14zM239.52 11.51h13.22v5.31c-.77-.32-1.53-.66-2.3-.95-.34-.13-.72-.21-1.08-.21-1.48-.02-2.97-.01-4.49-.01v6.04c.72 0 1.44-.05 2.15.01 1.46.13 2.81-.18 4.1-.85.25-.13.52-.22.81-.35v6.51c-.83-.35-1.65-.7-2.47-1.02-.22-.09-.46-.14-.69-.15-1.29-.01-2.58-.01-3.9-.01v18.38h.93c.33 0 .66-.02.99 0 1.98.15 3.9-.05 5.68-1.03.07-.04.16-.05.3-.1-.19.91-.38 1.78-.57 2.65-.17.77-.34 1.54-.54 2.31-.03.12-.21.3-.32.3-3.92.01-7.83 0-11.75 0-.01 0-.02-.01-.07-.04.34-.82.69-1.64 1.02-2.46.09-.22.14-.46.14-.69.01-10.15.01-20.3 0-30.45 0-.23-.06-.47-.14-.69-.32-.83-.67-1.65-1.02-2.5zM229.38 21.67c1.39 0 2.76.03 4.12-.02.35-.01.7-.23 1.04-.37.62-.25 1.23-.52 1.89-.8v6.51c-.77-.32-1.53-.66-2.3-.95-.34-.13-.72-.21-1.08-.21-1.21-.03-2.43-.01-3.71-.01v.49c0 6.31 0 12.61.01 18.92 0 .23.06.47.14.69.31.79.65 1.57.99 2.39h-6.45c.34-.82.68-1.63 1-2.44.1-.26.17-.54.17-.82.01-10.11.01-20.21 0-30.32 0-.26-.07-.53-.16-.77-.32-.82-.66-1.62-1.01-2.46h13.21v5.3c-.75-.31-1.5-.64-2.26-.92-.37-.13-.77-.23-1.16-.24-1.47-.03-2.94-.01-4.44-.01v6.04zM119.73 11.5h6.46c-.12.87-.24 1.72-.35 2.57-.02.13-.02.27.01.39l2.01 7.56c.01.02.04.03.11.08.23-.84.46-1.66.68-2.49.45-1.65.92-3.3 1.31-4.97.12-.5-.01-1.06-.06-1.58-.05-.5-.15-1-.23-1.53h6.45c-.14.21-.26.42-.4.6-1.11 1.35-1.75 2.89-2.19 4.59-1.09 4.3-2.29 8.58-3.44 12.86-.06.21-.09.44-.09.66 0 5-.01 10 0 15 0 .23.05.48.14.69.31.79.65 1.57 1 2.39h-6.45c.34-.83.7-1.65 1.02-2.47.09-.23.15-.49.15-.73.01-4.31-.02-8.62.02-12.93.01-1.45-.16-2.84-.55-4.24-1.23-4.44-2.4-8.89-3.61-13.33-.09-.33-.3-.64-.5-.94-.46-.72-.96-1.41-1.49-2.18zM190.9 15.74v.58c0 9.55 0 19.1.01 28.65 0 .35.08.71.21 1.04.29.77.63 1.51.96 2.31h-6.45c.33-.79.66-1.57.97-2.36.09-.24.16-.52.16-.77.01-9.69.01-19.37.01-29.06v-.4c-2-.43-3.75.21-5.48 1.14v-5.36h15.17v5.3c-1.75-.86-3.52-1.51-5.56-1.07zM94.16 44.21c1.7 0 3.33 0 4.97-.01.14 0 .29-.07.42-.12.83-.34 1.65-.69 2.56-1.07-.14.65-.26 1.24-.38 1.82-.24 1.08-.47 2.15-.73 3.23-.03.12-.22.29-.33.29-3.9.01-7.8.01-11.7.01-.02 0-.05-.02-.1-.05.34-.81.68-1.62 1-2.43.09-.23.16-.49.16-.73.01-10.15.01-20.3 0-30.45 0-.23-.06-.47-.15-.69-.32-.82-.67-1.62-1.02-2.47h6.45c-.31.74-.63 1.45-.91 2.19-.13.34-.22.72-.22 1.08-.01 9.61-.01 19.22-.01 28.83-.01.15-.01.33-.01.57zM156.74 48.35c.37-.89.73-1.71 1.06-2.54.08-.2.13-.43.13-.65.01-10.16.01-20.33 0-30.49 0-.22-.05-.44-.14-.65-.33-.83-.68-1.65-1.04-2.51h6.46c-.35.83-.69 1.62-1.01 2.42-.08.19-.13.4-.13.6-.01 9.77-.01 19.55-.01 29.32v.34h.49c1.38 0 2.76.01 4.14-.01.29 0 .59-.07.86-.17.8-.31 1.6-.66 2.46-1.02-.17.81-.32 1.57-.49 2.32-.2.9-.4 1.8-.62 2.7-.03.13-.2.31-.31.31-3.92.03-7.85.03-11.85.03zM150.72 53.22c.93 0 1.72.01 2.52-.01.26-.01.32.13.37.34.32 1.21.66 2.41.99 3.62.03.12.08.25.14.42.38-1.38.76-2.69 1.11-4.02.07-.26.15-.38.44-.37.77.02 1.55.01 2.42.01-.73 1.06-.5 2.19-.51 3.28-.02 3.08-.01 6.16 0 9.23 0 .94-.13 1.89.5 2.78h-2.77c.72-1.07.46-2.25.48-3.38.03-2.15.01-4.29.01-6.44v-.49c-.03 0-.05-.01-.08-.01l-1.56 5.79h-.08c-.52-1.92-1.04-3.84-1.55-5.76h-.06c-.01.1-.03.21-.03.31 0 2.85-.01 5.71 0 8.56 0 .23.07.47.15.69.08.25.19.49.3.76h-2.73c.76-1.17.48-2.44.49-3.66.03-2.99.01-5.98.01-8.96-.01-.91.11-1.82-.56-2.69zM209.09 68.52h-2.76c.45-.52.19-1 .06-1.49-.25-.92-.49-1.84-.77-2.88-.27.98-.52 1.85-.76 2.72-.04.14-.06.29-.11.43-.14.4-.3.8.21 1.2h-2.74c0-.04-.01-.1.01-.14.44-1.02.09-2.02-.04-3.03-.17-1.36-.39-2.72-.59-4.08-.22-1.55-.44-3.1-.67-4.65-.06-.41-.08-.84-.18-1.24-.18-.71-.42-1.41-.63-2.11h2.57c-.61 1.22-.11 2.42.02 3.61.15 1.36.39 2.72.59 4.08.16 1.08.31 2.16.52 3.24.58-2.12 1.15-4.25 1.73-6.37h.08c.57 2.1 1.13 4.21 1.7 6.31.03-.01.06-.01.09-.02.4-2.8.78-5.61 1.21-8.41.13-.82.24-1.62-.15-2.44h2.64c0 .03.02.07.01.09-.72.96-.73 2.12-.9 3.24-.25 1.59-.47 3.19-.7 4.79-.22 1.54-.43 3.08-.66 4.61-.09.83-.27 1.66.22 2.54zM175.08 68.51c.67-.94.51-1.96.51-2.95.01-3.09.01-6.19 0-9.28 0-1.02.17-2.07-.5-3.04h2.68c.01.02.03.05.03.07-.49.83-.43 1.75-.42 2.66.01.77 0 1.55.1 2.35.26-.58.51-1.15.77-1.73.16-.35.35-.7.47-1.06.26-.74.48-1.48.73-2.29h2.49c-.08.11-.13.21-.21.28a5.56 5.56 0 0 0-1.17 1.78c-.48 1.14-1.01 2.26-1.49 3.4-.08.18-.09.43-.04.63.68 2.59 1.36 5.19 2.1 7.76.14.5.52.93.8 1.41h-2.59c.3-1.97-.72-3.67-1.07-5.5-.09-.49-.27-.97-.41-1.49-.76 1.13-.44 2.35-.45 3.5-.02 1.16-.26 2.38.47 3.49-.96.01-1.82.01-2.8.01zM146.59 54.93v2.49c1.01.11 1.98.08 2.92-.51v2.78c-.91-.56-1.88-.6-2.91-.49v7.61c1.09.03 2.18.17 3.28-.55-.19.85-.35 1.56-.5 2.27h-4.99c-.01-.03-.04-.06-.03-.08.46-.79.44-1.65.44-2.52-.01-3.21 0-6.43-.01-9.64 0-1.02.18-2.07-.51-3.04h5.54v2.11c-.53-.14-1.04-.33-1.57-.4-.53-.08-1.08-.03-1.66-.03zM184.76 54.95v2.46c1.01.14 1.98.07 2.94-.49v2.78c-.93-.56-1.9-.62-2.92-.49v7.62c.53 0 1.09.05 1.63-.01.52-.06 1.03-.25 1.61-.4-.1.48-.19.98-.3 1.47-.15.65-.15.65-.83.65h-4.32c-.01-.05-.03-.08-.02-.1.44-.74.44-1.56.43-2.39-.02-3.26 0-6.52-.01-9.78 0-1.02.17-2.07-.5-3.03h5.54v2.22c-1.02-.68-2.12-.53-3.25-.51zM263.7 53.24h5.54v2.22c-1.01-.67-2.11-.52-3.22-.51v2.48c1 .09 1.97.08 2.91-.52v2.78c-.91-.56-1.88-.59-2.9-.49v7.61c1.08.01 2.18.18 3.27-.56-.19.86-.34 1.56-.5 2.27h-5c0-.04-.02-.09-.01-.12.42-.73.43-1.53.42-2.35-.02-3.26 0-6.52-.01-9.78.01-1.01.18-2.06-.5-3.03zM242.72 59.63c-.48-.16-.93-.37-1.4-.44-.48-.08-.98-.02-1.52-.02-.01.19-.02.35-.02.5 0 2.45-.02 4.89.02 7.34.01.5.24 1 .36 1.51h-2.57c-.01-.03-.03-.07-.02-.09.43-.74.44-1.56.43-2.39-.02-3.26-.01-6.51-.01-9.77 0-.53.05-1.06-.01-1.57-.06-.49-.25-.97-.38-1.46h5.43v2.11c-.53-.14-1.04-.33-1.57-.4s-1.07-.02-1.65-.02v2.5c1 .06 1.98.13 2.91-.56v2.76zM257.19 53.23h5.56v2.24c-1.01-.71-2.1-.53-3.21-.53v2.52c.5 0 1.01.06 1.5-.02.47-.07.92-.29 1.41-.45v2.7c-.93-.53-1.9-.6-2.96-.47v.48c0 2.13.01 4.26-.01 6.4-.01.83-.02 1.65.51 2.42h-2.78c.73-1.06.49-2.22.49-3.34.02-3.05.01-6.1.01-9.14.02-.95.15-1.91-.52-2.81zM226.11 53.25c-1.23 1.42-1.24 3.2-1.79 4.79-.14.39-.21.81-.34 1.2a9.481 9.481 0 0 0-.45 3.27c.05 1.35.02 2.7.01 4.05-.01.54.04 1.04.31 1.52.07.13.1.28.15.44h-2.62c-.01-.05-.02-.08-.01-.1.48-.8.44-1.68.43-2.57-.02-1.17-.03-2.34.01-3.51.03-1.01-.12-1.99-.4-2.96-.38-1.3-.67-2.63-1.07-3.92-.23-.76-.6-1.47-.9-2.19h2.55c-.46 1.51.45 2.8.68 4.22.31-1.39 1.12-2.68.73-4.22.89-.02 1.75-.02 2.71-.02zM114.37 53.24h6.32v2.17c-.75-.23-1.44-.67-2.28-.41-.01.12-.02.27-.02.42 0 3.87-.01 7.75.02 11.62 0 .48.24.97.37 1.47h-2.65c.75-1.15.46-2.42.47-3.65.03-3.11.01-6.22.01-9.33v-.52c-.82-.28-1.5.12-2.24.41v-2.18zM250.05 66.82c1.14-.01 2.23.18 3.2-.51.03.03.05.06.08.09-.15.67-.3 1.35-.47 2.02-.01.05-.13.11-.2.11-1.6.01-3.2 0-4.9 0 .76-1.13.5-2.34.51-3.5.03-2.99.01-5.98.01-8.97 0-.95.14-1.92-.51-2.82h2.7c-.01.04 0 .1-.02.14-.42.74-.4 1.54-.39 2.35.01 3.5.01 7 .01 10.5-.02.19-.02.36-.02.59zM253.6 53.23h2.71c-.01.06 0 .12-.03.16-.4.71-.4 1.48-.4 2.26.01 3.29 0 6.58.01 9.86 0 1.01-.17 2.05.51 3h-2.69c0-.03-.02-.08-.01-.11.42-.73.43-1.53.42-2.35-.02-3.3-.01-6.61-.01-9.91.01-.97.16-1.97-.51-2.91zM118.3 14.01c-.3-.75-.6-1.49-.94-2.23-.06-.13-.27-.28-.41-.28-3.72-.02-7.44-.02-11.16 0-.14 0-.35.15-.41.29-.28.59-.54 1.2-.75 1.82-.14.41-.26.86-.26 1.29-.02 5-.01 10-.01 15v15.32c0 .22.03.45.11.65.28.72.6 1.43.89 2.15.1.24.22.34.49.34 3.69-.01 7.38-.01 11.07 0 .28 0 .39-.11.49-.34.29-.72.6-1.43.89-2.15.07-.19.11-.4.11-.61.01-10.23 0-20.45 0-30.68-.01-.19-.04-.39-.11-.57zm-4.08 30.18h-5.71V15.66h5.71v28.53zM212.78 14.56c0-.19-.03-.39-.1-.56-.29-.73-.61-1.46-.91-2.19-.09-.21-.19-.32-.46-.32-3.71.01-7.41.01-11.12 0-.26 0-.37.1-.46.32-.25.62-.54 1.23-.76 1.86-.13.37-.24.77-.24 1.16-.02 5.02-.01 10.03-.01 15.05v15.36c0 .2.02.42.1.61.29.74.61 1.46.9 2.19.09.22.19.32.46.32 3.71-.01 7.41-.01 11.12 0 .26 0 .37-.11.46-.32.3-.75.62-1.49.92-2.24.06-.16.09-.35.09-.52.02-10.24.02-20.48.01-30.72zm-4.16 29.61h-5.72V15.66h5.72v28.51zM148.97 48.33h6.45c-.5-.85-.98-1.65-1.46-2.46-.1-.17-.21-.34-.24-.53-.38-2.1-.74-4.2-1.1-6.3-.49-2.84-.97-5.67-1.46-8.51-.47-2.67-.95-5.34-1.42-8.01-.51-2.89-1-5.79-1.52-8.68-.1-.54-.1-1.02.25-1.47.19-.25.32-.55.49-.85h-6.39c.25.43.49.8.68 1.2.1.21.15.48.12.71-.23 1.44-.49 2.88-.74 4.32-.37 2.16-.74 4.32-1.12 6.48l-1.14 6.52-1.11 6.39c-.38 2.17-.78 4.34-1.13 6.52-.19 1.16-.41 2.28-1.14 3.25-.32.43-.56.93-.86 1.43h6.46c-.1-.42-.21-.82-.29-1.22-.12-.59-.37-1.21-.29-1.78.3-2.2.7-4.39 1.08-6.58.27-1.57.55-3.13.83-4.71h3.73c.16.89.32 1.76.48 2.64.43 2.48.83 4.97 1.31 7.44.18.93.22 1.81-.08 2.72-.17.47-.27.97-.39 1.48zm-4.33-18.47c.36-2.09.72-4.16 1.08-6.23h.11c.36 2.07.72 4.13 1.08 6.23h-2.27zM126.45 61.89c-.14-.88-.28-1.77-.42-2.72.44 0 .81.02 1.18-.01.14-.01.32-.13.39-.25.3-.53.45-1.09.41-1.72-.04-.64-.04-1.29 0-1.94.03-.6-.11-1.15-.34-1.69-.11-.26-.25-.35-.53-.35-1.73.01-3.45.01-5.18.01-.1 0-.19.01-.38.02.65.9.52 1.88.52 2.83 0 3 .02 6.01-.01 9.01-.01 1.15.24 2.34-.49 3.43h2.65c-.13-.52-.35-1.02-.36-1.52-.04-2.45-.02-4.89-.02-7.34v-.43c.35-.12.44.03.47.3.13.89.27 1.77.41 2.65.25 1.61.53 3.21.74 4.82.06.49-.09 1.01-.14 1.5h2.51c-.22-.59-.51-1.15-.62-1.75-.31-1.6-.53-3.23-.79-4.85zm-2.54-4.45v-2.48h2.3v2.48h-2.3zM173.43 66.82c-.34-2.05-.65-4.09-.97-6.14-.08-.49-.14-.98-.21-1.51.44 0 .82.02 1.19-.01.13-.01.3-.12.36-.23.28-.53.46-1.09.42-1.71-.04-.64-.04-1.29 0-1.94.04-.62-.11-1.18-.35-1.74-.1-.24-.23-.34-.5-.33-.82.02-1.65.01-2.48.01h-3.1c.68.98.51 2.03.52 3.05.01 3.17 0 6.34 0 9.5 0 .92.13 1.86-.51 2.72h2.66c-.13-.51-.35-1-.35-1.49-.04-2.46-.02-4.92-.02-7.39v-.42c.38-.1.44.07.48.34.16 1.08.34 2.15.51 3.23.22 1.4.47 2.8.64 4.2.06.5-.09 1.02-.14 1.54h2.62c-.16-.29-.32-.52-.43-.77-.16-.29-.29-.59-.34-.91zm-3.33-9.39v-2.47h2.31v2.47h-2.31zM194.83 53.35c-.02-.07-.19-.13-.3-.13-1.86-.01-3.72-.01-5.62-.01.06.16.09.29.15.4.26.49.31 1.01.31 1.56-.01 3.56-.01 7.12-.01 10.68 0 .89.12 1.81-.55 2.68 1.99 0 3.85 0 5.71-.01.1 0 .27-.06.3-.13.17-.47.42-.96.43-1.44.03-4.05.03-8.11 0-12.16 0-.48-.25-.96-.42-1.44zm-1.34 13.45h-2.32V54.96h2.32V66.8zM143.16 53.56c-.12-.26-.25-.35-.53-.35-1.7.01-3.39.01-5.09.01-.13 0-.25.01-.47.02.65.89.51 1.85.52 2.78 0 2.96.02 5.92-.01 8.88-.01 1.21.27 2.46-.5 3.63 1.97 0 3.84 0 5.71-.01.09 0 .24-.06.26-.12.16-.49.42-.99.43-1.48.04-3.89.01-7.78.03-11.67-.01-.6-.11-1.15-.35-1.69zm-1.47 13.25h-2.29V54.97h2.29v11.84zM236.21 53.35c-.02-.07-.19-.13-.29-.13-1.47-.01-2.94-.01-4.41 0-.1 0-.27.05-.3.12-.16.43-.4.87-.4 1.3-.04 2.07-.02 4.14-.02 6.22 0 2.09-.02 4.17.02 6.26.01.44.25.87.41 1.3.03.07.2.11.3.11 1.46.01 2.91.01 4.37 0 .1 0 .28-.04.3-.1.17-.46.43-.92.43-1.39.03-4.1.03-8.2 0-12.3 0-.46-.25-.93-.41-1.39zm-1.31 13.46h-2.36V54.96h2.36v11.85zM133.83 68.51h2.67c-.19-.32-.35-.6-.51-.88-.07-.13-.17-.26-.19-.4-.28-1.6-.55-3.2-.83-4.8-.34-1.98-.74-3.96-1.02-5.95-.15-1.07-.75-2.13-.17-3.24h-2.5c.06.37.21.7.16 1.01-.22 1.44-.49 2.88-.74 4.32-.35 1.98-.67 3.97-1.05 5.95-.26 1.33-.22 2.76-1.11 3.91-.01.02 0 .05 0 .09h2.5c0-.67-.03-1.32.01-1.96.03-.46.14-.91.22-1.37.15-.86.3-1.72.46-2.58h1.51c.04.16.08.32.11.48.17.95.33 1.91.51 2.86.15.81.34 1.61 0 2.42-.03.04-.02.09-.03.14zm-1.79-7.64c.14-.84.28-1.66.42-2.49.02 0 .04 0 .06-.01.14.82.28 1.63.43 2.49-.33.01-.58.01-.91.01zM167.21 68.52c-.19-.32-.35-.59-.51-.88-.08-.14-.18-.29-.2-.45-.31-1.78-.61-3.56-.92-5.33-.35-1.98-.74-3.96-1.03-5.95-.13-.88-.66-1.77-.05-2.67h-2.51c.06.34.2.68.16.99-.15 1.09-.36 2.18-.55 3.26-.38 2.17-.73 4.35-1.15 6.52-.3 1.52-.28 3.13-1.21 4.5h2.68a3.31 3.31 0 0 1-.12-2.17c.1-.37.13-.76.19-1.15.15-.86.3-1.72.46-2.59h1.52c.11.6.25 1.19.32 1.79.15 1.37.81 2.7.22 4.12.92.01 1.78.01 2.7.01zm-4.46-7.67c.14-.83.28-1.65.42-2.46.02-.01.04-.02.06-.02.14.82.28 1.64.43 2.49-.3-.01-.58-.01-.91-.01zM109.54 68.5c-.24-.45-.57-.85-.67-1.3-.33-1.58-.57-3.17-.84-4.76-.37-2.16-.79-4.31-1.11-6.48-.13-.89-.67-1.79-.05-2.73h-2.52c.06.35.2.7.16 1.02-.18 1.25-.42 2.5-.64 3.75-.41 2.33-.81 4.67-1.23 7-.21 1.18-.24 2.42-1.03 3.43-.01.01.01.05.02.08h2.54c-.03-.54-.12-1.07-.08-1.59.07-.79.23-1.56.36-2.34.11-.67.25-1.33.37-1.98h1.51c.15.79.33 1.56.42 2.34.14 1.18.7 2.34.11 3.55.92.01 1.79.01 2.68.01zm-4.43-7.65c.15-.85.29-1.67.43-2.49h.05c.14.82.28 1.65.43 2.49h-.91zM219.27 68.52c-.12-.21-.23-.39-.33-.57-.13-.25-.33-.49-.38-.76-.27-1.39-.49-2.79-.74-4.18-.41-2.36-.86-4.72-1.22-7.1-.13-.87-.66-1.77-.05-2.67h-2.51c.06.34.21.68.16.99-.22 1.44-.49 2.88-.74 4.32-.38 2.16-.74 4.32-1.14 6.47-.21 1.16-.23 2.39-1.01 3.38-.02.02 0 .07 0 .1h2.66a3.31 3.31 0 0 1-.12-2.17c.1-.37.13-.76.19-1.15.15-.86.3-1.72.46-2.59h1.52c.11.6.26 1.19.32 1.79.14 1.37.83 2.7.22 4.12.92.02 1.79.02 2.71.02zm-4.46-7.66c.14-.84.28-1.66.42-2.47.02 0 .04 0 .06-.01.14.82.29 1.63.43 2.48h-.91z"/></g></svg>