<?xml version="1.0" encoding="utf-8"?>
<!-- Generator: Adobe Illustrator 27.4.1, SVG Export Plug-In . SVG Version: 6.00 Build 0)  -->
<svg version="1.1" id="Layer_1" xmlns="http://www.w3.org/2000/svg" xmlns:xlink="http://www.w3.org/1999/xlink" x="0px" y="0px"
	 viewBox="0 0 164.3 166.2" style="enable-background:new 0 0 164.3 166.2;" xml:space="preserve">
<style type="text/css">
	.st0{fill-rule:evenodd;clip-rule:evenodd;fill:#FFFFFF;}
	.st1{fill:#FFFFFF;}
</style>
<g>
	<g>
		<path class="st0" d="M50.4,50c0.3,0,0.5,0,0.8,0.1c0.3,1,2,2.6,2.7,3.5c0,15-0.1,30-0.1,45c0,4.6,0,9.2,0,13.9
			c-0.9,1.1-1.9,2.3-2.8,3.4c-0.2,0-0.5,0-0.7-0.1c0.1-0.1,0.2-0.2,0.2-0.2c0.8-1,1.6-2,2.4-3c0-14.4,0.1-28.8,0.1-43.1
			c0-5.3,0-10.5,0-15.8C52.6,52.7,50.3,50.9,50.4,50z"/>
		<path class="st0" d="M52.8,50c3.1,0.1,6.3,0.1,9.4,0.2c0.5,1.2,1,2.3,1.6,3.5c-0.8,0-3.9-0.2-4.4,0.1c0,14.5,0,29-0.1,43.5
			c0,3.7,0,7.3-0.1,11c0,0.8-0.2,3.6,0.1,4.1c8.2,0,16.5,0,24.7,0c-0.5,1.1-1,2.3-1.5,3.4c-10,0-20,0-30,0.1
			c0.9-1.2,1.8-2.3,2.7-3.5c0-14.1,0-28.2,0.1-42.3c0-5.5,0-10.9,0.1-16.4C54.9,52.4,53,51.5,52.8,50z"/>
		<path class="st0" d="M78.2,67.2c-1,0-2,0-3,0c-1.2,0.5-2.4,1-3.7,1.5c0-2.3,0-4.6,0.1-6.8c6.2,0,12.5,0,18.7,0.1
			c0,2.3-0.1,4.6-0.1,6.8c-1.6-0.7-3.9-2.2-6.6-1.4c0,7-0.1,14-0.1,21c0.7,0.3,1.6,1,2.6,0.7c0-2.8,0-5.7,0.1-8.5
			c-0.5-1.2-1-2.3-1.5-3.5c0,0,0,0,0-0.1c5.2,0,10.5,0,15.7,0c0,0,0.1,0,0.1,0.1c0,2.1,0,4.3-0.1,6.4c0,0,0,0-0.1,0
			c-0.9-0.4-1.8-0.8-2.7-1.2c-2.1,0-4.1,0-6.2,0c0,2.2,0,4.5-0.1,6.7c1.7,0,3.3,0,5,0c1.1-0.5,2.1-0.9,3.2-1.4c0,2.7-0.1,5.3-0.1,8
			c-1-0.4-2.1-0.9-3.1-1.3c-1.7,0-3.3,0-5,0.1c0,6-0.1,12-0.1,18c0.5,1.1,0.9,2.3,1.4,3.4c-2.7,0-5.5,0-8.2,0c0.5-1.1,1-2.3,1.5-3.4
			c0-6,0-12,0.1-18.1c-0.9,0-1.7,0-2.6,0.1c0,1,0,2,0,3c0.5,1.2,1,2.4,1.5,3.6c0,0,0,0-0.1,0c-2.8,0-5.5-0.1-8.3-0.1
			c0.8-1.6,2.3-3.8,1.5-6.6c-4.8,0-9.5,0-14.3-0.1c0.5-1.2,1-2.3,1.5-3.5c0-3.5,0-7.1,0-10.6c0-8.9,0-17.7,0.1-26.6
			c-0.5-1.1-1-2.3-1.5-3.4c0,0,0,0,0-0.1c2.8,0,5.6,0,8.4,0.1c-0.5,1.2-1,2.3-1.5,3.5c0,7.6-0.1,15.1-0.1,22.7c0,4.2,0,8.4-0.1,12.5
			c0,0,0,0.1,0.1,0.1c2,0,3.9,0,5.9,0c0.5-0.2,1-0.4,1.6-0.6C78.1,81.3,78.2,74.3,78.2,67.2z"/>
		<path class="st0" d="M105.1,53.8c-10.9,0-21.8-0.1-32.7-0.1c0.5-1.2,1-2.3,1.5-3.5c12.6,0.1,25.3,0.1,37.9,0.2
			c-0.1,0.1-0.1,0.1-0.2,0.2c-0.8,1.1-1.7,2.1-2.5,3.2c0,5.3-0.1,10.7-0.1,16c-0.1,14.2-0.2,28.4-0.3,42.6c0.9,1.2,1.7,2.3,2.6,3.5
			c-5.6,0-11.1,0-16.7,0c-0.5-1.2-1-2.3-1.5-3.5c0,0,0,0,0.1-0.1c3.9,0,7.7,0,11.6,0C104.8,92.8,104.9,73.3,105.1,53.8z"/>
		<path class="st0" d="M113.2,50.4c0.3,0,0.5,0,0.8,0c-0.9,1.2-1.8,2.3-2.7,3.5c0,4.4,0,8.7-0.1,13.1c-0.1,10.5-0.2,21-0.3,31.5
			c0,4.7-0.1,9.4-0.1,14.1c0.9,1.1,1.7,2.2,2.6,3.3c0,0,0,0,0,0.1c-0.3,0-0.5,0-0.8,0c-0.9-1.2-1.8-2.3-2.7-3.5
			c0.1-14.4,0.3-28.8,0.4-43.1c0-5.2,0-10.3,0.1-15.5C111.4,52.6,112.3,51.5,113.2,50.4z"/>
	</g>
	<g>
		<path class="st1" d="M0,82.9c0.2-19.8,6.3-37.5,18.8-52.8C30,16.3,44.4,7.1,61.6,2.5c3.7-1,7.4-1.6,11.2-2.1
			c4.7-0.5,9.4-0.7,14.1-0.4c16.5,1,31.5,6.5,44.6,16.6c14.7,11.3,24.5,25.9,29.6,43.7c1.2,4.2,2,8.5,2.5,12.9
			c0.5,4.3,0.7,8.6,0.5,12.9c-0.8,22-10.1,42.5-26,57.5c-10.5,10-22.9,16.7-36.9,20.2c-3.6,0.9-7.2,1.5-10.9,1.9
			c-3.2,0.3-6.4,0.5-9.5,0.4c-3.3-0.1-6.5-0.3-9.8-0.7c-7.6-1-14.8-3.1-21.8-6.2c-10.9-4.8-20.3-11.7-28.2-20.6
			C12,128.3,5.8,116.4,2.4,103.1C1.6,99.7,1,96.2,0.6,92.7C0.2,89.4,0,86.2,0,82.9z M161.5,83c0-3.5-0.2-7-0.7-10.5
			c-0.6-4.5-1.5-9-2.9-13.4C151.8,40,140.4,25,123.3,14.3c-12-7.5-25.1-11.3-39.1-11.7C78.7,2.5,73.2,3,67.7,4
			c-6.1,1.1-11.9,2.9-17.6,5.5c-11.4,5.1-21,12.4-28.9,22.1C9.7,45.6,3.6,61.7,2.9,79.9c-0.2,4.2,0,8.5,0.5,12.7
			c0.5,3.9,1.2,7.7,2.2,11.5c4.4,16.2,13,29.8,25.8,40.6c13.3,11.2,28.7,17.3,46,18.5c4.6,0.3,9.3,0.1,13.9-0.4
			c3.6-0.4,7.1-1.1,10.6-2c16.4-4.3,30-13,40.9-26C155.2,119.8,161.3,102.4,161.5,83z"/>
		<path class="st1" d="M30.7,82.9c0.4-16.5,6.7-30.2,19.5-40.8c6.5-5.3,13.9-8.7,22.2-10.4c4.1-0.8,8.3-1.1,12.5-0.8
			c18.1,1,34,11.6,42.3,27.2c2.8,5.3,4.7,10.9,5.6,16.8c0.6,3.8,0.8,7.7,0.5,11.5c-1.2,18.9-12.3,35.1-28.3,43.2
			c-4.7,2.4-9.6,4-14.9,4.8c-3.3,0.5-6.6,0.8-9.9,0.6c-10.8-0.4-20.5-3.8-29-10.4c-10.2-7.8-16.6-18-19.4-30.5
			C31.1,90.4,30.8,86.7,30.7,82.9z M82.1,33.6c-2.1,0-4.2,0.1-6.4,0.4c-4.1,0.5-8.1,1.6-12,3.2c-16.4,6.8-28.5,22.5-30,41.6
			c-0.4,4.3-0.2,8.5,0.6,12.7c1,5.5,2.8,10.7,5.5,15.5c7.9,14.3,22.7,24.2,39.6,25.1c3.4,0.2,6.9,0,10.3-0.5
			c5.3-0.8,10.3-2.5,15.1-5.1c14.4-7.7,24.6-22.7,25.8-40.3c0.3-4,0.1-8-0.6-11.9c-1.2-7-3.8-13.5-7.8-19.4
			C113,41.6,98.1,33.6,82.1,33.6z"/>
		<path class="st1" d="M142.3,119.5c-0.1-0.1-0.2-0.2-0.3-0.3c-2.7-3.1-5.6-6.1-8.6-9c-0.3-0.3-0.6-0.4-0.9-0.4
			c-0.4,0-0.8-0.1-1.3-0.2c1-1.9,1.9-3.8,2.9-5.7c0.2,0.5,0.4,0.9,0.6,1.3c0.2,0.6,0.6,1,1.1,1.4c4.2,3.5,8.2,7.2,11.9,11.3
			c0.3,0.3,0.6,0.5,1.1,0.5c0.4,0,0.8,0,1.4,0c-1.4,2.5-2.9,4.9-4.5,7.3c-0.1-0.3-0.1-0.5-0.1-0.7c0-0.2,0-0.4-0.1-0.6
			c-1.8-0.2-3.5-0.4-5.3-0.6c0.8,1.6,1.5,3.2,2.2,4.8c0.4-0.1,0.8-0.2,1.3-0.3c-1.7,2.2-3.4,4.3-5.3,6.3c-0.2-0.5-0.4-0.9-0.5-1.4
			c-0.1-0.4-0.3-0.5-0.6-0.7c-5.1-2.5-10-5.3-14.7-8.4c-0.3-0.2-0.5-0.3-0.8-0.3c-0.6-0.1-1.1-0.1-1.7-0.2c0,0,0-0.1,0-0.1
			c0,0,0,0,0-0.1c1.3-1.3,2.7-2.7,4.1-4c0.2,0.4,0.4,0.9,0.7,1.3c0.1,0.2,0.3,0.4,0.5,0.5c3.7,2.1,7.4,3.9,11.3,5.6
			c0.1,0,0.2,0.1,0.2,0.1c0,0,0,0,0.1-0.1c0,0,0,0,0,0c-0.1-0.3-0.2-0.6-0.4-0.9c-1.2-2.7-2.5-5.3-4-7.9c1.7,0.3,3.3,0.6,4.9,0.8
			c1.6,0.2,3.3,0.4,4.9,0.6C142.2,119.6,142.2,119.6,142.3,119.5z"/>
		<path class="st1" d="M54.7,131.9c0,0.6,0.1,1.3,0.1,1.9c0,0.2-0.1,0.4-0.2,0.5c-2.7,5-5.4,10-8.1,15c-0.1,0.2-0.3,0.4-0.6,0.5
			c-0.4,0.2-0.8,0.3-1.2,0.6c-0.4,0.2-0.7,0.2-1,0c-3.1-1.7-6-3.6-8.8-5.7c-0.7-0.6-1.5-1.2-2.2-1.7c-0.2-0.2-0.3-0.4-0.3-0.7
			c0-0.6-0.1-1.3,0.1-1.8c0.2-0.5,0.7-0.9,1.1-1.4c3.4-3.9,6.8-7.8,10.1-11.8c0.3-0.3,0.5-0.5,0.9-0.6c0.3-0.1,0.7-0.2,1-0.4
			c0.3-0.1,0.6-0.1,0.8,0.1c2.1,1.7,4.3,3.2,6.6,4.6C53.7,131.3,54.2,131.6,54.7,131.9z M46.6,130c-3.2,4.3-6.4,8.5-9.6,12.8
			c1.8,1.4,3.7,2.6,5.7,3.8c2.8-4.6,5.6-9.1,8.4-13.6C49.5,132,48.1,131,46.6,130z"/>
		<path class="st1" d="M50.3,37c-0.5-0.3-1.1-0.5-1.6-0.8c-0.2-0.1-0.3-0.2-0.4-0.4c-3.1-4.5-6.2-8.9-9.3-13.4
			c-0.2-0.2-0.2-0.4-0.2-0.7c0-0.4,0.1-0.9,0-1.3c0-0.3,0.1-0.5,0.4-0.7c2.8-1.8,5.6-3.4,8.6-4.9c0.7-0.4,1.5-0.7,2.2-1
			c0.2-0.1,0.4-0.1,0.6,0c0.5,0.3,1.1,0.5,1.5,0.9c0.4,0.4,0.5,1,0.8,1.5c2,4.6,3.9,9.1,5.9,13.7c0.2,0.4,0.2,0.7,0.1,1.1
			c0,0.3-0.1,0.6-0.1,0.9c0,0.4-0.1,0.5-0.5,0.7c-1.7,0.8-3.4,1.7-5,2.6C52.3,35.7,51.4,36.3,50.3,37z M43.1,20.3
			c2.7,4.4,5.3,8.7,8,13.1c1.5-0.8,2.9-1.6,4.4-2.4c-2.3-4.6-4.6-9.1-6.9-13.7C46.7,18.2,44.9,19.2,43.1,20.3z"/>
		<path class="st1" d="M116.4,31.1c-1.2-0.7-2.4-1.4-3.6-2.1c-0.1,0.1-0.2,0.2-0.3,0.2c-1,1-1.9,2-2.8,3c-0.1,0.2-0.2,0.4-0.3,0.6
			c-0.1,0.4-0.2,0.9-0.3,1.4c-1.6-0.7-3.1-1.5-4.7-2.2c0.5-0.3,1-0.5,1.5-0.8c0.3-0.2,0.5-0.3,0.7-0.6c3.6-4.3,7.4-8.4,11.5-12.2
			c0.3-0.3,0.5-0.6,0.5-1.1c0-0.4,0.1-0.7,0.2-1.2c2.1,1.1,4.1,2.3,6.1,3.6c-0.4,0.3-0.8,0.6-1.2,0.9c-0.2,0.2-0.4,0.3-0.4,0.6
			c-1.4,5.5-3.2,10.9-5.4,16.2c-0.1,0.2-0.1,0.5-0.1,0.7c0,0.6,0,1.1,0,1.8c-1.4-1-2.8-2-4.2-3.1c0.4-0.3,0.7-0.6,1.1-0.9
			c0.1-0.1,0.3-0.3,0.4-0.5c0.5-1.4,0.9-2.8,1.4-4.2C116.4,31.3,116.4,31.2,116.4,31.1z M118.4,23.7c-1.3,1.1-2.5,2.2-3.7,3.4
			c0.9,0.5,1.7,1,2.5,1.5C117.7,26.9,118.2,25.3,118.4,23.7z"/>
		<path class="st1" d="M101,134.9c3.7-1.4,7.2-3,10.6-5.1c0.6,1,1.2,1.9,1.8,2.9c-0.8,0.2-1.5,0.4-2.3,0.6c-0.2,0.1-0.4,0.1-0.6,0.2
			c-1.3,0.6-2.6,1.3-3.8,1.9c-0.1,0-0.1,0.1-0.2,0.1c0.5,1.2,1,2.3,1.6,3.5c0.7-0.4,1.4-0.7,2.1-1c1.2-0.5,2.2-1.3,3.1-2.2
			c0.2-0.2,0.4-0.4,0.6-0.7c0.7,1.2,1.4,2.4,2.1,3.6c-0.2,0.1-0.3,0.1-0.4,0.2c-1.7,0.4-3.3,1-4.8,1.9c-0.5,0.3-1.1,0.5-1.6,0.8
			c1.2,2.8,2.4,5.5,3.7,8.3c0.2-0.1,0.4-0.1,0.5-0.2c1.2-0.6,2.5-1.3,3.7-1.9c0.8-0.4,1.5-0.9,2.2-1.5c0.4-0.4,0.9-0.9,1.5-1.4
			c0.2,1.3,0.3,2.4,0.5,3.6c-4.2,2.5-8.6,4.6-13.2,6.2c-0.1-0.2,0-0.4,0.1-0.5c0.2-0.5,0.5-1.1,0.5-1.6c0-0.5-0.3-1-0.5-1.5
			c-1.7-4.8-3.5-9.5-5.2-14.3c-0.1-0.3-0.3-0.6-0.6-0.8C101.8,135.6,101.4,135.3,101,134.9z"/>
		<path class="st1" d="M35.6,120.3c-0.6-1.8-1.4-3.5-2.6-4.9c-0.1,0.1-0.2,0.1-0.3,0.2c-4.4,3-8.9,5.9-13.3,8.9
			c-0.3,0.2-0.4,0.4-0.5,0.7c-0.2,0.6-0.3,1.1-0.5,1.7c-0.7-0.6-3.7-5.7-4.3-7.2c0.2,0,0.3,0,0.4,0c0.6,0.1,1.2,0.3,1.8,0.3
			c0.5-0.1,1-0.5,1.5-0.8c4.2-2.4,8.4-4.8,12.6-7.2c0.2-0.1,0.3-0.2,0.5-0.3c-0.7-1.9-1.8-3.4-3.1-4.9c1.1-0.5,2.1-0.9,3.2-1.4
			c2,4.5,4.4,8.8,7.5,12.7C37.4,118.8,36.5,119.5,35.6,120.3z"/>
		<path class="st1" d="M86.7,159.2c-2.6,0.2-5.1,0.3-7.6,0.2c0.1-0.3,0.3-0.5,0.4-0.7c0.7-0.7,0.9-1.5,0.9-2.5
			c0.1-5.2,0.3-10.5,0.5-15.7c0-0.3-0.1-0.5-0.2-0.8c-0.2-0.4-0.5-0.9-0.8-1.4c3.9,0,7.7-0.3,11.5-1c0.2,1.1,0.4,2.2,0.5,3.3
			c-0.3,0-0.6,0-0.9-0.1c-1.2-0.2-2.3-0.2-3.5,0c-0.8,0.1-1.7,0.2-2.6,0.2c-0.1,0-0.2,0-0.4,0.1c0,1.3,0.1,2.5,0.1,3.9
			c0.3,0,0.6,0,0.9,0c0.6,0,1.2-0.1,1.8-0.1c1.1,0,2.1-0.4,3-0.9c0.3-0.2,0.6-0.3,1-0.4c0.2,1.4,0.4,2.7,0.6,4.1
			c-0.6-0.1-1.1-0.1-1.6-0.2c-0.9-0.1-1.8-0.1-2.7,0c-0.9,0.1-1.7,0.2-2.6,0.2c-0.1,0-0.3,0-0.4,0.1c0,0.2,0,0.4,0,0.6
			c0.1,3,0.2,6,0.3,9c0,0.3,0.1,0.5,0.2,0.7C85.9,158.3,86.2,158.7,86.7,159.2z"/>
		<path class="st1" d="M79.9,7c-0.1,0.5-0.1,0.9-0.2,1.3c0,0.2,0,0.5,0.1,0.7c0.7,1.3,1.4,2.5,2.1,3.8c0,0,0.1,0.1,0.1,0.2
			c0.1-0.1,0.2-0.3,0.2-0.4c0.6-1.2,1.3-2.3,1.9-3.5c0.2-0.3,0.2-0.6,0.1-0.9c-0.1-0.4-0.1-0.8-0.2-1.3c2.3,0.1,4.6,0.2,7,0.5
			c-0.2,0.2-0.4,0.3-0.5,0.4c-1.3,0.6-2.2,1.6-2.9,2.9c-1.1,2-2.3,4-3.5,6.1c-0.2,0.3-0.2,0.6-0.2,1c-0.1,2.5-0.1,5-0.2,7.5
			c0,0.3,0.1,0.6,0.2,0.9c0.2,0.4,0.4,0.9,0.7,1.3c-1.7,0-3.4,0-5.2,0c0.1-0.3,0.2-0.5,0.3-0.7c0.4-0.7,0.5-1.4,0.5-2.2
			c-0.1-2.3-0.2-4.6-0.2-6.9c0-0.3-0.1-0.6-0.2-0.9c-1.3-2.5-2.8-5-4.3-7.4c-0.1-0.2-0.4-0.4-0.6-0.6c-0.6-0.4-1.2-0.8-2-1.3
			C75.3,7.2,77.6,7.1,79.9,7z"/>
		<path class="st1" d="M34.6,47.4c0.7,1,1.3,1.9,2,2.9c-2.2,3-4,6.1-5.7,9.5c-0.3-0.5-0.6-0.8-0.8-1.2c-0.2-0.4-0.5-0.6-0.9-0.8
			c-4.7-2.4-9.5-4.7-14.2-7.1c-0.3-0.2-0.6-0.2-1-0.1c-0.5,0.2-1,0.3-1.6,0.4c0.1-0.7,2.9-5.9,3.8-7.1c0.2,0.3,0.3,0.6,0.4,0.9
			c0.2,0.8,0.7,1.3,1.4,1.7c4.1,2.4,8.2,4.8,12.3,7.2c0.2,0.1,0.4,0.2,0.6,0.3c0.1-0.2,0.2-0.3,0.3-0.5c0.6-1,1.3-2,1.9-3.1
			c0.2-0.4,0.4-0.8,0.6-1.2C34.1,48.7,34.3,48.1,34.6,47.4z"/>
		<path class="st1" d="M134,55.4c0.7,1.5,1.4,2.9,2.1,4.3c0.2,0.4,0.5,0.7,0.8,1.1c0.3,0.4,0.6,0.8,1,1.3c-1.2,0.1-2.3,0.1-3.5,0.2
			c-1.4-3.3-3-6.5-5.1-9.6c0.6,0,1-0.1,1.5-0.1c0.4,0,0.7-0.1,1-0.3c4.5-2.9,9-5.8,13.5-8.7c0.3-0.2,0.5-0.4,0.6-0.7
			c0.2-0.5,0.4-1,0.6-1.7c1.4,2.2,2.7,4.4,3.9,6.7c-0.6-0.1-1.2-0.2-1.7-0.3c-0.3-0.1-0.6,0-0.8,0.1c-4.4,2.5-8.9,4.9-13.3,7.4
			C134.3,55.3,134.2,55.3,134,55.4z"/>
		<path class="st1" d="M16.4,91.4c-0.4-0.8-0.6-1.5-0.6-2.3c0-4.8,0-9.5,0-14.3c0-0.9,0.2-1.6,0.6-2.4c2,0,4,0,6,0
			c0.4,0.8,0.6,1.5,0.6,2.4c0,4.9,0,9.7,0,14.6c0,0.7-0.3,1.2-0.6,1.8c0,0.1-0.2,0.1-0.3,0.2c-0.1,0-0.3,0-0.4,0c-1.6,0-3.2,0-4.9,0
			C16.8,91.4,16.6,91.4,16.4,91.4z M18,74.5c-0.1,1-0.1,14.4,0.1,14.8c1,0,1.9,0,2.9,0c0-5,0-9.9,0-14.8C19.9,74.5,19,74.5,18,74.5z
			"/>
		<path class="st1" d="M148,72.4c2,0,4,0,6,0c0.4,0.8,0.7,1.6,0.7,2.5c0,4.9,0,9.7,0,14.6c0,0.7-0.3,1.2-0.6,1.8
			c0,0.1-0.2,0.1-0.3,0.1c-0.1,0-0.3,0-0.4,0c-1.6,0-3.2,0-4.9,0c-0.2,0-0.4,0-0.6,0c-0.3-0.7-0.6-1.4-0.6-2.2c0-4.8,0-9.7,0-14.5
			C147.4,73.8,147.7,73.1,148,72.4z M149.6,74.5c-0.1,1-0.1,14.4,0.1,14.8c1,0,1.9,0,2.9,0c0-5,0-9.9,0-14.8
			C151.6,74.5,150.6,74.5,149.6,74.5z"/>
		<path class="st1" d="M12.5,77.6c0-1.1,0-2.1,0-3.2c-0.6,0-1.2-0.1-1.8,0C10.1,74.6,9.6,74.8,9,75c0-0.9,0-1.7,0-2.6
			c1.7,0,3.3,0,5,0c0.3,0.7,0.7,1.4,0.6,2.3c-0.1,0.9-0.1,1.9,0,2.8c0.1,0.8-0.3,1.6-0.6,2.3c-1.1,0-2.3,0-3.4,0
			c-0.1,0.4-0.2,8.6-0.1,9.5c0.1,0,0.3,0,0.4,0.1c0.3,0,0.6,0,0.8,0c0.9,0.1,1.7,0,2.5-0.5c0,0,0.1,0,0.2-0.1c0,0,0.1,0,0.2,0
			c-0.2,0.9-0.4,1.7-0.6,2.6c-1.9,0-3.8,0-5.7,0c0-0.2,0-0.4,0-0.6c0-3.7,0-7.4,0-11.1c0-0.7,0.3-1.3,0.6-1.8c0-0.1,0.3-0.2,0.4-0.2
			c0.8,0,1.6,0,2.5,0C12,77.6,12.2,77.6,12.5,77.6z"/>
		<path class="st1" d="M140.6,75.1c0-1,0-1.9,0-2.7c1.7,0,3.3,0,5,0c0.3,0.7,0.6,1.4,0.6,2.2c-0.1,0.9-0.1,1.9,0,2.8
			c0.1,0.9-0.2,1.6-0.6,2.4c-1.1,0-2.3,0-3.5,0c0,3.2,0,6.3,0,9.5c1.2-0.1,2.4,0.2,3.6-0.4c0.1-0.1,0.3-0.1,0.5-0.2
			c-0.2,0.9-0.4,1.8-0.6,2.7c-1.9,0-3.8,0-5.6,0c0-0.2,0-0.4,0-0.5c0-3.8,0-7.6,0-11.4c0-0.7,0.4-1.2,0.6-1.7c0-0.1,0.3-0.1,0.4-0.1
			c0.8,0,1.6,0,2.5,0c0.2,0,0.4,0,0.6,0c0-1.1,0-2.1,0-3.1C142.9,74.4,141.8,74.4,140.6,75.1z"/>
	</g>
</g>
</svg>
